<?xml version="1.0" encoding="UTF-8" standalone="no"?>
<!DOCTYPE svg PUBLIC "-//W3C//DTD SVG 1.1//EN"
 "http://www.w3.org/Graphics/SVG/1.1/DTD/svg11.dtd">
<!-- Generated by graphviz version 8.1.0 (20230707.0739)
 -->
<!-- Pages: 1 -->
<svg width="188pt" height="1272pt"
 viewBox="0.00 0.00 187.60 1271.60" xmlns="http://www.w3.org/2000/svg" xmlns:xlink="http://www.w3.org/1999/xlink">
<g id="graph0" class="graph" transform="scale(1 1) rotate(0) translate(4 1267.6)">
<polygon fill="white" stroke="none" points="-4,4 -4,-1267.6 183.6,-1267.6 183.6,4 -4,4"/>
<!-- 0 -->
<g id="node1" class="node">
<title>0</title>
<ellipse fill="black" stroke="black" cx="91.8" cy="-1261.8" rx="1.8" ry="1.8"/>
</g>
<!-- 1 -->
<g id="node2" class="node">
<title>1</title>
<ellipse fill="black" stroke="black" cx="91.8" cy="-1222.2" rx="1.8" ry="1.8"/>
</g>
<!-- 0&#45;&#45;1 -->
<g id="edge1" class="edge">
<title>0&#45;&#45;1</title>
<path fill="none" stroke="black" d="M91.8,-1259.55C91.8,-1253.84 91.8,-1230.29 91.8,-1224.49"/>
</g>
<!-- 2 -->
<g id="node3" class="node">
<title>2</title>
<ellipse fill="black" stroke="black" cx="91.8" cy="-1182.6" rx="1.8" ry="1.8"/>
</g>
<!-- 1&#45;&#45;2 -->
<g id="edge2" class="edge">
<title>1&#45;&#45;2</title>
<path fill="none" stroke="black" d="M91.8,-1219.95C91.8,-1214.24 91.8,-1190.69 91.8,-1184.89"/>
</g>
<!-- 3 -->
<g id="node4" class="node">
<title>3</title>
<ellipse fill="black" stroke="black" cx="91.8" cy="-1143" rx="1.8" ry="1.8"/>
</g>
<!-- 2&#45;&#45;3 -->
<g id="edge3" class="edge">
<title>2&#45;&#45;3</title>
<path fill="none" stroke="black" d="M91.8,-1180.35C91.8,-1174.64 91.8,-1151.09 91.8,-1145.29"/>
</g>
<!-- 4 -->
<g id="node5" class="node">
<title>4</title>
<ellipse fill="black" stroke="black" cx="91.8" cy="-1103.4" rx="1.8" ry="1.8"/>
</g>
<!-- 3&#45;&#45;4 -->
<g id="edge4" class="edge">
<title>3&#45;&#45;4</title>
<path fill="none" stroke="black" d="M91.8,-1140.75C91.8,-1135.04 91.8,-1111.49 91.8,-1105.69"/>
</g>
<!-- 5 -->
<g id="node6" class="node">
<title>5</title>
<ellipse fill="black" stroke="black" cx="80.8" cy="-1063.8" rx="1.8" ry="1.8"/>
</g>
<!-- 4&#45;&#45;5 -->
<g id="edge5" class="edge">
<title>4&#45;&#45;5</title>
<path fill="none" stroke="black" d="M91.43,-1101.15C89.7,-1095.24 82.38,-1070.19 81.02,-1065.54"/>
</g>
<!-- 6 -->
<g id="node7" class="node">
<title>6</title>
<ellipse fill="black" stroke="black" cx="102.8" cy="-1063.8" rx="1.8" ry="1.8"/>
</g>
<!-- 4&#45;&#45;6 -->
<g id="edge6" class="edge">
<title>4&#45;&#45;6</title>
<path fill="none" stroke="black" d="M92.17,-1101.15C93.9,-1095.24 101.22,-1070.19 102.58,-1065.54"/>
</g>
<!-- 7 -->
<g id="node8" class="node">
<title>7</title>
<ellipse fill="black" stroke="black" cx="69.8" cy="-1024.2" rx="1.8" ry="1.8"/>
</g>
<!-- 5&#45;&#45;7 -->
<g id="edge7" class="edge">
<title>5&#45;&#45;7</title>
<path fill="none" stroke="black" d="M80.43,-1061.55C78.7,-1055.64 71.38,-1030.59 70.02,-1025.94"/>
</g>
<!-- 8 -->
<g id="node9" class="node">
<title>8</title>
<ellipse fill="black" stroke="black" cx="91.8" cy="-1024.2" rx="1.8" ry="1.8"/>
</g>
<!-- 5&#45;&#45;8 -->
<g id="edge8" class="edge">
<title>5&#45;&#45;8</title>
<path fill="none" stroke="black" d="M81.17,-1061.55C82.9,-1055.64 90.22,-1030.59 91.58,-1025.94"/>
</g>
<!-- 17 -->
<g id="node18" class="node">
<title>17</title>
<ellipse fill="black" stroke="black" cx="69.8" cy="-984.6" rx="1.8" ry="1.8"/>
</g>
<!-- 7&#45;&#45;17 -->
<g id="edge17" class="edge">
<title>7&#45;&#45;17</title>
<path fill="none" stroke="black" d="M69.8,-1021.95C69.8,-1016.24 69.8,-992.69 69.8,-986.89"/>
</g>
<!-- 9 -->
<g id="node10" class="node">
<title>9</title>
<ellipse fill="black" stroke="black" cx="91.8" cy="-984.6" rx="1.8" ry="1.8"/>
</g>
<!-- 8&#45;&#45;9 -->
<g id="edge9" class="edge">
<title>8&#45;&#45;9</title>
<path fill="none" stroke="black" d="M91.8,-1021.95C91.8,-1016.24 91.8,-992.69 91.8,-986.89"/>
</g>
<!-- 10 -->
<g id="node11" class="node">
<title>10</title>
<ellipse fill="black" stroke="black" cx="91.8" cy="-945" rx="1.8" ry="1.8"/>
</g>
<!-- 9&#45;&#45;10 -->
<g id="edge10" class="edge">
<title>9&#45;&#45;10</title>
<path fill="none" stroke="black" d="M91.8,-982.35C91.8,-976.64 91.8,-953.09 91.8,-947.29"/>
</g>
<!-- 11 -->
<g id="node12" class="node">
<title>11</title>
<ellipse fill="black" stroke="black" cx="91.8" cy="-905.4" rx="1.8" ry="1.8"/>
</g>
<!-- 10&#45;&#45;11 -->
<g id="edge11" class="edge">
<title>10&#45;&#45;11</title>
<path fill="none" stroke="black" d="M91.8,-942.75C91.8,-937.04 91.8,-913.49 91.8,-907.69"/>
</g>
<!-- 12 -->
<g id="node13" class="node">
<title>12</title>
<ellipse fill="black" stroke="black" cx="91.8" cy="-865.8" rx="1.8" ry="1.8"/>
</g>
<!-- 11&#45;&#45;12 -->
<g id="edge12" class="edge">
<title>11&#45;&#45;12</title>
<path fill="none" stroke="black" d="M91.8,-903.15C91.8,-897.44 91.8,-873.89 91.8,-868.09"/>
</g>
<!-- 13 -->
<g id="node14" class="node">
<title>13</title>
<ellipse fill="black" stroke="black" cx="91.8" cy="-826.2" rx="1.8" ry="1.8"/>
</g>
<!-- 12&#45;&#45;13 -->
<g id="edge13" class="edge">
<title>12&#45;&#45;13</title>
<path fill="none" stroke="black" d="M91.8,-863.55C91.8,-857.84 91.8,-834.29 91.8,-828.49"/>
</g>
<!-- 14 -->
<g id="node15" class="node">
<title>14</title>
<ellipse fill="black" stroke="black" cx="91.8" cy="-786.6" rx="1.8" ry="1.8"/>
</g>
<!-- 13&#45;&#45;14 -->
<g id="edge14" class="edge">
<title>13&#45;&#45;14</title>
<path fill="none" stroke="black" d="M91.8,-823.95C91.8,-818.24 91.8,-794.69 91.8,-788.89"/>
</g>
<!-- 15 -->
<g id="node16" class="node">
<title>15</title>
<ellipse fill="black" stroke="black" cx="91.8" cy="-747" rx="1.8" ry="1.8"/>
</g>
<!-- 14&#45;&#45;15 -->
<g id="edge15" class="edge">
<title>14&#45;&#45;15</title>
<path fill="none" stroke="black" d="M91.8,-784.35C91.8,-778.64 91.8,-755.09 91.8,-749.29"/>
</g>
<!-- 16 -->
<g id="node17" class="node">
<title>16</title>
<ellipse fill="black" stroke="black" cx="113.8" cy="-747" rx="1.8" ry="1.8"/>
</g>
<!-- 14&#45;&#45;16 -->
<g id="edge16" class="edge">
<title>14&#45;&#45;16</title>
<path fill="none" stroke="black" d="M92.34,-784.67C95.41,-779.42 110.54,-753.57 113.35,-748.77"/>
</g>
<!-- 28 -->
<g id="node29" class="node">
<title>28</title>
<ellipse fill="black" stroke="black" cx="91.8" cy="-707.4" rx="1.8" ry="1.8"/>
</g>
<!-- 15&#45;&#45;28 -->
<g id="edge28" class="edge">
<title>15&#45;&#45;28</title>
<path fill="none" stroke="black" d="M91.8,-744.75C91.8,-739.04 91.8,-715.49 91.8,-709.69"/>
</g>
<!-- 29 -->
<g id="node30" class="node">
<title>29</title>
<ellipse fill="black" stroke="black" cx="116.8" cy="-707.4" rx="1.8" ry="1.8"/>
</g>
<!-- 15&#45;&#45;29 -->
<g id="edge29" class="edge">
<title>15&#45;&#45;29</title>
<path fill="none" stroke="black" d="M92.42,-745.07C95.91,-739.82 113.1,-713.97 116.29,-709.17"/>
</g>
<!-- 18 -->
<g id="node19" class="node">
<title>18</title>
<ellipse fill="black" stroke="black" cx="69.8" cy="-945" rx="1.8" ry="1.8"/>
</g>
<!-- 17&#45;&#45;18 -->
<g id="edge18" class="edge">
<title>17&#45;&#45;18</title>
<path fill="none" stroke="black" d="M69.8,-982.35C69.8,-976.64 69.8,-953.09 69.8,-947.29"/>
</g>
<!-- 19 -->
<g id="node20" class="node">
<title>19</title>
<ellipse fill="black" stroke="black" cx="47.8" cy="-905.4" rx="1.8" ry="1.8"/>
</g>
<!-- 18&#45;&#45;19 -->
<g id="edge19" class="edge">
<title>18&#45;&#45;19</title>
<path fill="none" stroke="black" d="M69.26,-943.07C66.19,-937.82 51.06,-911.97 48.25,-907.17"/>
</g>
<!-- 20 -->
<g id="node21" class="node">
<title>20</title>
<ellipse fill="black" stroke="black" cx="69.8" cy="-905.4" rx="1.8" ry="1.8"/>
</g>
<!-- 18&#45;&#45;20 -->
<g id="edge20" class="edge">
<title>18&#45;&#45;20</title>
<path fill="none" stroke="black" d="M69.8,-942.75C69.8,-937.04 69.8,-913.49 69.8,-907.69"/>
</g>
<!-- 21 -->
<g id="node22" class="node">
<title>21</title>
<ellipse fill="black" stroke="black" cx="69.8" cy="-865.8" rx="1.8" ry="1.8"/>
</g>
<!-- 20&#45;&#45;21 -->
<g id="edge21" class="edge">
<title>20&#45;&#45;21</title>
<path fill="none" stroke="black" d="M69.8,-903.15C69.8,-897.44 69.8,-873.89 69.8,-868.09"/>
</g>
<!-- 22 -->
<g id="node23" class="node">
<title>22</title>
<ellipse fill="black" stroke="black" cx="69.8" cy="-826.2" rx="1.8" ry="1.8"/>
</g>
<!-- 21&#45;&#45;22 -->
<g id="edge22" class="edge">
<title>21&#45;&#45;22</title>
<path fill="none" stroke="black" d="M69.8,-863.55C69.8,-857.84 69.8,-834.29 69.8,-828.49"/>
</g>
<!-- 23 -->
<g id="node24" class="node">
<title>23</title>
<ellipse fill="black" stroke="black" cx="69.8" cy="-786.6" rx="1.8" ry="1.8"/>
</g>
<!-- 22&#45;&#45;23 -->
<g id="edge23" class="edge">
<title>22&#45;&#45;23</title>
<path fill="none" stroke="black" d="M69.8,-823.95C69.8,-818.24 69.8,-794.69 69.8,-788.89"/>
</g>
<!-- 24 -->
<g id="node25" class="node">
<title>24</title>
<ellipse fill="black" stroke="black" cx="69.8" cy="-747" rx="1.8" ry="1.8"/>
</g>
<!-- 23&#45;&#45;24 -->
<g id="edge24" class="edge">
<title>23&#45;&#45;24</title>
<path fill="none" stroke="black" d="M69.8,-784.35C69.8,-778.64 69.8,-755.09 69.8,-749.29"/>
</g>
<!-- 25 -->
<g id="node26" class="node">
<title>25</title>
<ellipse fill="black" stroke="black" cx="68.8" cy="-707.4" rx="1.8" ry="1.8"/>
</g>
<!-- 24&#45;&#45;25 -->
<g id="edge25" class="edge">
<title>24&#45;&#45;25</title>
<path fill="none" stroke="black" d="M69.77,-744.75C69.61,-739.04 68.99,-715.49 68.83,-709.69"/>
</g>
<!-- 26 -->
<g id="node27" class="node">
<title>26</title>
<ellipse fill="black" stroke="black" cx="45.8" cy="-667.8" rx="1.8" ry="1.8"/>
</g>
<!-- 25&#45;&#45;26 -->
<g id="edge26" class="edge">
<title>25&#45;&#45;26</title>
<path fill="none" stroke="black" d="M68.23,-705.47C65.02,-700.22 49.21,-674.37 46.27,-669.57"/>
</g>
<!-- 27 -->
<g id="node28" class="node">
<title>27</title>
<ellipse fill="black" stroke="black" cx="68.8" cy="-667.8" rx="1.8" ry="1.8"/>
</g>
<!-- 25&#45;&#45;27 -->
<g id="edge27" class="edge">
<title>25&#45;&#45;27</title>
<path fill="none" stroke="black" d="M68.8,-705.15C68.8,-699.44 68.8,-675.89 68.8,-670.09"/>
</g>
<!-- 30 -->
<g id="node31" class="node">
<title>30</title>
<ellipse fill="black" stroke="black" cx="23.8" cy="-628.2" rx="1.8" ry="1.8"/>
</g>
<!-- 26&#45;&#45;30 -->
<g id="edge30" class="edge">
<title>26&#45;&#45;30</title>
<path fill="none" stroke="black" d="M45.26,-665.87C42.19,-660.62 27.06,-634.77 24.25,-629.97"/>
</g>
<!-- 31 -->
<g id="node32" class="node">
<title>31</title>
<ellipse fill="black" stroke="black" cx="45.8" cy="-628.2" rx="1.8" ry="1.8"/>
</g>
<!-- 26&#45;&#45;31 -->
<g id="edge31" class="edge">
<title>26&#45;&#45;31</title>
<path fill="none" stroke="black" d="M45.8,-665.55C45.8,-659.84 45.8,-636.29 45.8,-630.49"/>
</g>
<!-- 40 -->
<g id="node41" class="node">
<title>40</title>
<ellipse fill="black" stroke="black" cx="91.8" cy="-667.8" rx="1.8" ry="1.8"/>
</g>
<!-- 28&#45;&#45;40 -->
<g id="edge40" class="edge">
<title>28&#45;&#45;40</title>
<path fill="none" stroke="black" d="M91.8,-705.15C91.8,-699.44 91.8,-675.89 91.8,-670.09"/>
</g>
<!-- 32 -->
<g id="node33" class="node">
<title>32</title>
<ellipse fill="black" stroke="black" cx="121.8" cy="-667.8" rx="1.8" ry="1.8"/>
</g>
<!-- 29&#45;&#45;32 -->
<g id="edge32" class="edge">
<title>29&#45;&#45;32</title>
<path fill="none" stroke="black" d="M116.97,-705.15C117.75,-699.24 121.08,-674.19 121.7,-669.54"/>
</g>
<!-- 61 -->
<g id="node62" class="node">
<title>61</title>
<ellipse fill="black" stroke="black" cx="23.8" cy="-588.6" rx="1.8" ry="1.8"/>
</g>
<!-- 30&#45;&#45;61 -->
<g id="edge61" class="edge">
<title>30&#45;&#45;61</title>
<path fill="none" stroke="black" d="M23.8,-625.95C23.8,-620.24 23.8,-596.69 23.8,-590.89"/>
</g>
<!-- 53 -->
<g id="node54" class="node">
<title>53</title>
<ellipse fill="black" stroke="black" cx="45.8" cy="-588.6" rx="1.8" ry="1.8"/>
</g>
<!-- 31&#45;&#45;53 -->
<g id="edge53" class="edge">
<title>31&#45;&#45;53</title>
<path fill="none" stroke="black" d="M45.8,-625.95C45.8,-620.24 45.8,-596.69 45.8,-590.89"/>
</g>
<!-- 33 -->
<g id="node34" class="node">
<title>33</title>
<ellipse fill="black" stroke="black" cx="132.8" cy="-628.2" rx="1.8" ry="1.8"/>
</g>
<!-- 32&#45;&#45;33 -->
<g id="edge33" class="edge">
<title>32&#45;&#45;33</title>
<path fill="none" stroke="black" d="M122.17,-665.55C123.9,-659.64 131.22,-634.59 132.58,-629.94"/>
</g>
<!-- 34 -->
<g id="node35" class="node">
<title>34</title>
<ellipse fill="black" stroke="black" cx="133.8" cy="-588.6" rx="1.8" ry="1.8"/>
</g>
<!-- 33&#45;&#45;34 -->
<g id="edge34" class="edge">
<title>33&#45;&#45;34</title>
<path fill="none" stroke="black" d="M132.83,-625.95C132.99,-620.24 133.61,-596.69 133.77,-590.89"/>
</g>
<!-- 35 -->
<g id="node36" class="node">
<title>35</title>
<ellipse fill="black" stroke="black" cx="133.8" cy="-549" rx="1.8" ry="1.8"/>
</g>
<!-- 34&#45;&#45;35 -->
<g id="edge35" class="edge">
<title>34&#45;&#45;35</title>
<path fill="none" stroke="black" d="M133.8,-586.35C133.8,-580.64 133.8,-557.09 133.8,-551.29"/>
</g>
<!-- 36 -->
<g id="node37" class="node">
<title>36</title>
<ellipse fill="black" stroke="black" cx="133.8" cy="-509.4" rx="1.8" ry="1.8"/>
</g>
<!-- 35&#45;&#45;36 -->
<g id="edge36" class="edge">
<title>35&#45;&#45;36</title>
<path fill="none" stroke="black" d="M133.8,-546.75C133.8,-541.04 133.8,-517.49 133.8,-511.69"/>
</g>
<!-- 37 -->
<g id="node38" class="node">
<title>37</title>
<ellipse fill="black" stroke="black" cx="133.8" cy="-469.8" rx="1.8" ry="1.8"/>
</g>
<!-- 36&#45;&#45;37 -->
<g id="edge37" class="edge">
<title>36&#45;&#45;37</title>
<path fill="none" stroke="black" d="M133.8,-507.15C133.8,-501.44 133.8,-477.89 133.8,-472.09"/>
</g>
<!-- 38 -->
<g id="node39" class="node">
<title>38</title>
<ellipse fill="black" stroke="black" cx="133.8" cy="-430.2" rx="1.8" ry="1.8"/>
</g>
<!-- 37&#45;&#45;38 -->
<g id="edge38" class="edge">
<title>37&#45;&#45;38</title>
<path fill="none" stroke="black" d="M133.8,-467.55C133.8,-461.84 133.8,-438.29 133.8,-432.49"/>
</g>
<!-- 39 -->
<g id="node40" class="node">
<title>39</title>
<ellipse fill="black" stroke="black" cx="155.8" cy="-430.2" rx="1.8" ry="1.8"/>
</g>
<!-- 37&#45;&#45;39 -->
<g id="edge39" class="edge">
<title>37&#45;&#45;39</title>
<path fill="none" stroke="black" d="M134.34,-467.87C137.41,-462.62 152.54,-436.77 155.35,-431.97"/>
</g>
<!-- 44 -->
<g id="node45" class="node">
<title>44</title>
<ellipse fill="black" stroke="black" cx="133.8" cy="-390.6" rx="1.8" ry="1.8"/>
</g>
<!-- 38&#45;&#45;44 -->
<g id="edge44" class="edge">
<title>38&#45;&#45;44</title>
<path fill="none" stroke="black" d="M133.8,-427.95C133.8,-422.24 133.8,-398.69 133.8,-392.89"/>
</g>
<!-- 45 -->
<g id="node46" class="node">
<title>45</title>
<ellipse fill="black" stroke="black" cx="155.8" cy="-390.6" rx="1.8" ry="1.8"/>
</g>
<!-- 38&#45;&#45;45 -->
<g id="edge45" class="edge">
<title>38&#45;&#45;45</title>
<path fill="none" stroke="black" d="M134.34,-428.27C137.41,-423.02 152.54,-397.17 155.35,-392.37"/>
</g>
<!-- 41 -->
<g id="node42" class="node">
<title>41</title>
<ellipse fill="black" stroke="black" cx="91.8" cy="-628.2" rx="1.8" ry="1.8"/>
</g>
<!-- 40&#45;&#45;41 -->
<g id="edge41" class="edge">
<title>40&#45;&#45;41</title>
<path fill="none" stroke="black" d="M91.8,-665.55C91.8,-659.84 91.8,-636.29 91.8,-630.49"/>
</g>
<!-- 42 -->
<g id="node43" class="node">
<title>42</title>
<ellipse fill="black" stroke="black" cx="89.8" cy="-588.6" rx="1.8" ry="1.8"/>
</g>
<!-- 41&#45;&#45;42 -->
<g id="edge42" class="edge">
<title>41&#45;&#45;42</title>
<path fill="none" stroke="black" d="M91.73,-625.95C91.43,-620.24 90.18,-596.69 89.87,-590.89"/>
</g>
<!-- 43 -->
<g id="node44" class="node">
<title>43</title>
<ellipse fill="black" stroke="black" cx="111.8" cy="-588.6" rx="1.8" ry="1.8"/>
</g>
<!-- 41&#45;&#45;43 -->
<g id="edge43" class="edge">
<title>41&#45;&#45;43</title>
<path fill="none" stroke="black" d="M92.29,-626.27C95.09,-621.02 108.84,-595.17 111.39,-590.37"/>
</g>
<!-- 46 -->
<g id="node47" class="node">
<title>46</title>
<ellipse fill="black" stroke="black" cx="111.8" cy="-549" rx="1.8" ry="1.8"/>
</g>
<!-- 43&#45;&#45;46 -->
<g id="edge46" class="edge">
<title>43&#45;&#45;46</title>
<path fill="none" stroke="black" d="M111.8,-586.35C111.8,-580.64 111.8,-557.09 111.8,-551.29"/>
</g>
<!-- 84 -->
<g id="node85" class="node">
<title>84</title>
<ellipse fill="black" stroke="black" cx="133.8" cy="-351" rx="1.8" ry="1.8"/>
</g>
<!-- 44&#45;&#45;84 -->
<g id="edge84" class="edge">
<title>44&#45;&#45;84</title>
<path fill="none" stroke="black" d="M133.8,-388.35C133.8,-382.64 133.8,-359.09 133.8,-353.29"/>
</g>
<!-- 69 -->
<g id="node70" class="node">
<title>69</title>
<ellipse fill="black" stroke="black" cx="155.8" cy="-351" rx="1.8" ry="1.8"/>
</g>
<!-- 45&#45;&#45;69 -->
<g id="edge69" class="edge">
<title>45&#45;&#45;69</title>
<path fill="none" stroke="black" d="M155.8,-388.35C155.8,-382.64 155.8,-359.09 155.8,-353.29"/>
</g>
<!-- 47 -->
<g id="node48" class="node">
<title>47</title>
<ellipse fill="black" stroke="black" cx="111.8" cy="-509.4" rx="1.8" ry="1.8"/>
</g>
<!-- 46&#45;&#45;47 -->
<g id="edge47" class="edge">
<title>46&#45;&#45;47</title>
<path fill="none" stroke="black" d="M111.8,-546.75C111.8,-541.04 111.8,-517.49 111.8,-511.69"/>
</g>
<!-- 48 -->
<g id="node49" class="node">
<title>48</title>
<ellipse fill="black" stroke="black" cx="111.8" cy="-469.8" rx="1.8" ry="1.8"/>
</g>
<!-- 47&#45;&#45;48 -->
<g id="edge48" class="edge">
<title>47&#45;&#45;48</title>
<path fill="none" stroke="black" d="M111.8,-507.15C111.8,-501.44 111.8,-477.89 111.8,-472.09"/>
</g>
<!-- 49 -->
<g id="node50" class="node">
<title>49</title>
<ellipse fill="black" stroke="black" cx="111.8" cy="-430.2" rx="1.8" ry="1.8"/>
</g>
<!-- 48&#45;&#45;49 -->
<g id="edge49" class="edge">
<title>48&#45;&#45;49</title>
<path fill="none" stroke="black" d="M111.8,-467.55C111.8,-461.84 111.8,-438.29 111.8,-432.49"/>
</g>
<!-- 50 -->
<g id="node51" class="node">
<title>50</title>
<ellipse fill="black" stroke="black" cx="111.8" cy="-390.6" rx="1.8" ry="1.8"/>
</g>
<!-- 49&#45;&#45;50 -->
<g id="edge50" class="edge">
<title>49&#45;&#45;50</title>
<path fill="none" stroke="black" d="M111.8,-427.95C111.8,-422.24 111.8,-398.69 111.8,-392.89"/>
</g>
<!-- 51 -->
<g id="node52" class="node">
<title>51</title>
<ellipse fill="black" stroke="black" cx="89.8" cy="-351" rx="1.8" ry="1.8"/>
</g>
<!-- 50&#45;&#45;51 -->
<g id="edge51" class="edge">
<title>50&#45;&#45;51</title>
<path fill="none" stroke="black" d="M111.26,-388.67C108.19,-383.42 93.06,-357.57 90.25,-352.77"/>
</g>
<!-- 52 -->
<g id="node53" class="node">
<title>52</title>
<ellipse fill="black" stroke="black" cx="111.8" cy="-351" rx="1.8" ry="1.8"/>
</g>
<!-- 50&#45;&#45;52 -->
<g id="edge52" class="edge">
<title>50&#45;&#45;52</title>
<path fill="none" stroke="black" d="M111.8,-388.35C111.8,-382.64 111.8,-359.09 111.8,-353.29"/>
</g>
<!-- 67 -->
<g id="node68" class="node">
<title>67</title>
<ellipse fill="black" stroke="black" cx="89.8" cy="-311.4" rx="1.8" ry="1.8"/>
</g>
<!-- 51&#45;&#45;67 -->
<g id="edge67" class="edge">
<title>51&#45;&#45;67</title>
<path fill="none" stroke="black" d="M89.8,-348.75C89.8,-343.04 89.8,-319.49 89.8,-313.69"/>
</g>
<!-- 68 -->
<g id="node69" class="node">
<title>68</title>
<ellipse fill="black" stroke="black" cx="111.8" cy="-311.4" rx="1.8" ry="1.8"/>
</g>
<!-- 51&#45;&#45;68 -->
<g id="edge68" class="edge">
<title>51&#45;&#45;68</title>
<path fill="none" stroke="black" d="M90.34,-349.07C93.41,-343.82 108.54,-317.97 111.35,-313.17"/>
</g>
<!-- 54 -->
<g id="node55" class="node">
<title>54</title>
<ellipse fill="black" stroke="black" cx="45.8" cy="-549" rx="1.8" ry="1.8"/>
</g>
<!-- 53&#45;&#45;54 -->
<g id="edge54" class="edge">
<title>53&#45;&#45;54</title>
<path fill="none" stroke="black" d="M45.8,-586.35C45.8,-580.64 45.8,-557.09 45.8,-551.29"/>
</g>
<!-- 55 -->
<g id="node56" class="node">
<title>55</title>
<ellipse fill="black" stroke="black" cx="45.8" cy="-509.4" rx="1.8" ry="1.8"/>
</g>
<!-- 54&#45;&#45;55 -->
<g id="edge55" class="edge">
<title>54&#45;&#45;55</title>
<path fill="none" stroke="black" d="M45.8,-546.75C45.8,-541.04 45.8,-517.49 45.8,-511.69"/>
</g>
<!-- 56 -->
<g id="node57" class="node">
<title>56</title>
<ellipse fill="black" stroke="black" cx="45.8" cy="-469.8" rx="1.8" ry="1.8"/>
</g>
<!-- 55&#45;&#45;56 -->
<g id="edge56" class="edge">
<title>55&#45;&#45;56</title>
<path fill="none" stroke="black" d="M45.8,-507.15C45.8,-501.44 45.8,-477.89 45.8,-472.09"/>
</g>
<!-- 57 -->
<g id="node58" class="node">
<title>57</title>
<ellipse fill="black" stroke="black" cx="45.8" cy="-430.2" rx="1.8" ry="1.8"/>
</g>
<!-- 56&#45;&#45;57 -->
<g id="edge57" class="edge">
<title>56&#45;&#45;57</title>
<path fill="none" stroke="black" d="M45.8,-467.55C45.8,-461.84 45.8,-438.29 45.8,-432.49"/>
</g>
<!-- 58 -->
<g id="node59" class="node">
<title>58</title>
<ellipse fill="black" stroke="black" cx="45.8" cy="-390.6" rx="1.8" ry="1.8"/>
</g>
<!-- 57&#45;&#45;58 -->
<g id="edge58" class="edge">
<title>57&#45;&#45;58</title>
<path fill="none" stroke="black" d="M45.8,-427.95C45.8,-422.24 45.8,-398.69 45.8,-392.89"/>
</g>
<!-- 59 -->
<g id="node60" class="node">
<title>59</title>
<ellipse fill="black" stroke="black" cx="45.8" cy="-351" rx="1.8" ry="1.8"/>
</g>
<!-- 58&#45;&#45;59 -->
<g id="edge59" class="edge">
<title>58&#45;&#45;59</title>
<path fill="none" stroke="black" d="M45.8,-388.35C45.8,-382.64 45.8,-359.09 45.8,-353.29"/>
</g>
<!-- 60 -->
<g id="node61" class="node">
<title>60</title>
<ellipse fill="black" stroke="black" cx="67.8" cy="-351" rx="1.8" ry="1.8"/>
</g>
<!-- 58&#45;&#45;60 -->
<g id="edge60" class="edge">
<title>58&#45;&#45;60</title>
<path fill="none" stroke="black" d="M46.34,-388.67C49.41,-383.42 64.54,-357.57 67.35,-352.77"/>
</g>
<!-- 65 -->
<g id="node66" class="node">
<title>65</title>
<ellipse fill="black" stroke="black" cx="45.8" cy="-311.4" rx="1.8" ry="1.8"/>
</g>
<!-- 59&#45;&#45;65 -->
<g id="edge65" class="edge">
<title>59&#45;&#45;65</title>
<path fill="none" stroke="black" d="M45.8,-348.75C45.8,-343.04 45.8,-319.49 45.8,-313.69"/>
</g>
<!-- 66 -->
<g id="node67" class="node">
<title>66</title>
<ellipse fill="black" stroke="black" cx="67.8" cy="-311.4" rx="1.8" ry="1.8"/>
</g>
<!-- 59&#45;&#45;66 -->
<g id="edge66" class="edge">
<title>59&#45;&#45;66</title>
<path fill="none" stroke="black" d="M46.34,-349.07C49.41,-343.82 64.54,-317.97 67.35,-313.17"/>
</g>
<!-- 62 -->
<g id="node63" class="node">
<title>62</title>
<ellipse fill="black" stroke="black" cx="23.8" cy="-549" rx="1.8" ry="1.8"/>
</g>
<!-- 61&#45;&#45;62 -->
<g id="edge62" class="edge">
<title>61&#45;&#45;62</title>
<path fill="none" stroke="black" d="M23.8,-586.35C23.8,-580.64 23.8,-557.09 23.8,-551.29"/>
</g>
<!-- 63 -->
<g id="node64" class="node">
<title>63</title>
<ellipse fill="black" stroke="black" cx="1.8" cy="-509.4" rx="1.8" ry="1.8"/>
</g>
<!-- 62&#45;&#45;63 -->
<g id="edge63" class="edge">
<title>62&#45;&#45;63</title>
<path fill="none" stroke="black" d="M23.26,-547.07C20.19,-541.82 5.06,-515.97 2.25,-511.17"/>
</g>
<!-- 64 -->
<g id="node65" class="node">
<title>64</title>
<ellipse fill="black" stroke="black" cx="23.8" cy="-509.4" rx="1.8" ry="1.8"/>
</g>
<!-- 62&#45;&#45;64 -->
<g id="edge64" class="edge">
<title>62&#45;&#45;64</title>
<path fill="none" stroke="black" d="M23.8,-546.75C23.8,-541.04 23.8,-517.49 23.8,-511.69"/>
</g>
<!-- 77 -->
<g id="node78" class="node">
<title>77</title>
<ellipse fill="black" stroke="black" cx="23.8" cy="-469.8" rx="1.8" ry="1.8"/>
</g>
<!-- 64&#45;&#45;77 -->
<g id="edge77" class="edge">
<title>64&#45;&#45;77</title>
<path fill="none" stroke="black" d="M23.8,-507.15C23.8,-501.44 23.8,-477.89 23.8,-472.09"/>
</g>
<!-- 70 -->
<g id="node71" class="node">
<title>70</title>
<ellipse fill="black" stroke="black" cx="155.8" cy="-311.4" rx="1.8" ry="1.8"/>
</g>
<!-- 69&#45;&#45;70 -->
<g id="edge70" class="edge">
<title>69&#45;&#45;70</title>
<path fill="none" stroke="black" d="M155.8,-348.75C155.8,-343.04 155.8,-319.49 155.8,-313.69"/>
</g>
<!-- 71 -->
<g id="node72" class="node">
<title>71</title>
<ellipse fill="black" stroke="black" cx="155.8" cy="-255.6" rx="1.8" ry="1.8"/>
</g>
<!-- 70&#45;&#45;71 -->
<g id="edge71" class="edge">
<title>70&#45;&#45;71</title>
<path fill="none" stroke="black" d="M155.8,-309.47C155.8,-302.99 155.8,-264.83 155.8,-257.74"/>
</g>
<!-- 72 -->
<g id="node73" class="node">
<title>72</title>
<ellipse fill="black" stroke="black" cx="155.8" cy="-199.8" rx="1.8" ry="1.8"/>
</g>
<!-- 71&#45;&#45;72 -->
<g id="edge72" class="edge">
<title>71&#45;&#45;72</title>
<path fill="none" stroke="black" d="M155.8,-253.67C155.8,-247.19 155.8,-209.03 155.8,-201.94"/>
</g>
<!-- 73 -->
<g id="node74" class="node">
<title>73</title>
<ellipse fill="black" stroke="black" cx="155.8" cy="-160.2" rx="1.8" ry="1.8"/>
</g>
<!-- 72&#45;&#45;73 -->
<g id="edge73" class="edge">
<title>72&#45;&#45;73</title>
<path fill="none" stroke="black" d="M155.8,-197.55C155.8,-191.84 155.8,-168.29 155.8,-162.49"/>
</g>
<!-- 74 -->
<g id="node75" class="node">
<title>74</title>
<ellipse fill="black" stroke="black" cx="155.8" cy="-120.6" rx="1.8" ry="1.8"/>
</g>
<!-- 73&#45;&#45;74 -->
<g id="edge74" class="edge">
<title>73&#45;&#45;74</title>
<path fill="none" stroke="black" d="M155.8,-157.95C155.8,-152.24 155.8,-128.69 155.8,-122.89"/>
</g>
<!-- 75 -->
<g id="node76" class="node">
<title>75</title>
<ellipse fill="black" stroke="black" cx="155.8" cy="-81" rx="1.8" ry="1.8"/>
</g>
<!-- 74&#45;&#45;75 -->
<g id="edge75" class="edge">
<title>74&#45;&#45;75</title>
<path fill="none" stroke="black" d="M155.8,-118.35C155.8,-112.64 155.8,-89.09 155.8,-83.29"/>
</g>
<!-- 76 -->
<g id="node77" class="node">
<title>76</title>
<ellipse fill="black" stroke="black" cx="177.8" cy="-81" rx="1.8" ry="1.8"/>
</g>
<!-- 74&#45;&#45;76 -->
<g id="edge76" class="edge">
<title>74&#45;&#45;76</title>
<path fill="none" stroke="black" d="M156.34,-118.67C159.41,-113.42 174.54,-87.57 177.35,-82.77"/>
</g>
<!-- 78 -->
<g id="node79" class="node">
<title>78</title>
<ellipse fill="black" stroke="black" cx="23.8" cy="-430.2" rx="1.8" ry="1.8"/>
</g>
<!-- 77&#45;&#45;78 -->
<g id="edge78" class="edge">
<title>77&#45;&#45;78</title>
<path fill="none" stroke="black" d="M23.8,-467.55C23.8,-461.84 23.8,-438.29 23.8,-432.49"/>
</g>
<!-- 79 -->
<g id="node80" class="node">
<title>79</title>
<ellipse fill="black" stroke="black" cx="23.8" cy="-390.6" rx="1.8" ry="1.8"/>
</g>
<!-- 78&#45;&#45;79 -->
<g id="edge79" class="edge">
<title>78&#45;&#45;79</title>
<path fill="none" stroke="black" d="M23.8,-427.95C23.8,-422.24 23.8,-398.69 23.8,-392.89"/>
</g>
<!-- 80 -->
<g id="node81" class="node">
<title>80</title>
<ellipse fill="black" stroke="black" cx="23.8" cy="-351" rx="1.8" ry="1.8"/>
</g>
<!-- 79&#45;&#45;80 -->
<g id="edge80" class="edge">
<title>79&#45;&#45;80</title>
<path fill="none" stroke="black" d="M23.8,-388.35C23.8,-382.64 23.8,-359.09 23.8,-353.29"/>
</g>
<!-- 81 -->
<g id="node82" class="node">
<title>81</title>
<ellipse fill="black" stroke="black" cx="23.8" cy="-311.4" rx="1.8" ry="1.8"/>
</g>
<!-- 80&#45;&#45;81 -->
<g id="edge81" class="edge">
<title>80&#45;&#45;81</title>
<path fill="none" stroke="black" d="M23.8,-348.75C23.8,-343.04 23.8,-319.49 23.8,-313.69"/>
</g>
<!-- 82 -->
<g id="node83" class="node">
<title>82</title>
<ellipse fill="black" stroke="black" cx="12.8" cy="-255.6" rx="1.8" ry="1.8"/>
</g>
<!-- 81&#45;&#45;82 -->
<g id="edge82" class="edge">
<title>81&#45;&#45;82</title>
<path fill="none" stroke="black" d="M23.61,-309.47C22.29,-302.99 14.48,-264.83 13.03,-257.74"/>
</g>
<!-- 83 -->
<g id="node84" class="node">
<title>83</title>
<ellipse fill="black" stroke="black" cx="34.8" cy="-255.6" rx="1.8" ry="1.8"/>
</g>
<!-- 81&#45;&#45;83 -->
<g id="edge83" class="edge">
<title>81&#45;&#45;83</title>
<path fill="none" stroke="black" d="M23.99,-309.47C25.31,-302.99 33.12,-264.83 34.57,-257.74"/>
</g>
<!-- 85 -->
<g id="node86" class="node">
<title>85</title>
<ellipse fill="black" stroke="black" cx="133.8" cy="-311.4" rx="1.8" ry="1.8"/>
</g>
<!-- 84&#45;&#45;85 -->
<g id="edge85" class="edge">
<title>84&#45;&#45;85</title>
<path fill="none" stroke="black" d="M133.8,-348.75C133.8,-343.04 133.8,-319.49 133.8,-313.69"/>
</g>
<!-- 86 -->
<g id="node87" class="node">
<title>86</title>
<ellipse fill="red" stroke="black" cx="95.8" cy="-255.6" rx="18" ry="18"/>
</g>
<!-- 85&#45;&#45;86 -->
<g id="edge86" class="edge">
<title>85&#45;&#45;86</title>
<path fill="none" stroke="black" d="M133.14,-309.47C129.95,-304.95 115.84,-284.98 105.91,-270.92"/>
</g>
<!-- 87 -->
<g id="node88" class="node">
<title>87</title>
<ellipse fill="black" stroke="black" cx="133.8" cy="-255.6" rx="1.8" ry="1.8"/>
</g>
<!-- 85&#45;&#45;87 -->
<g id="edge87" class="edge">
<title>85&#45;&#45;87</title>
<path fill="none" stroke="black" d="M133.8,-309.47C133.8,-302.99 133.8,-264.83 133.8,-257.74"/>
</g>
<!-- 88 -->
<g id="node89" class="node">
<title>88</title>
<ellipse fill="black" stroke="black" cx="133.8" cy="-199.8" rx="1.8" ry="1.8"/>
</g>
<!-- 87&#45;&#45;88 -->
<g id="edge88" class="edge">
<title>87&#45;&#45;88</title>
<path fill="none" stroke="black" d="M133.8,-253.67C133.8,-247.19 133.8,-209.03 133.8,-201.94"/>
</g>
<!-- 89 -->
<g id="node90" class="node">
<title>89</title>
<ellipse fill="black" stroke="black" cx="133.8" cy="-160.2" rx="1.8" ry="1.8"/>
</g>
<!-- 88&#45;&#45;89 -->
<g id="edge89" class="edge">
<title>88&#45;&#45;89</title>
<path fill="none" stroke="black" d="M133.8,-197.55C133.8,-191.84 133.8,-168.29 133.8,-162.49"/>
</g>
<!-- 90 -->
<g id="node91" class="node">
<title>90</title>
<ellipse fill="black" stroke="black" cx="133.8" cy="-120.6" rx="1.8" ry="1.8"/>
</g>
<!-- 89&#45;&#45;90 -->
<g id="edge90" class="edge">
<title>89&#45;&#45;90</title>
<path fill="none" stroke="black" d="M133.8,-157.95C133.8,-152.24 133.8,-128.69 133.8,-122.89"/>
</g>
<!-- 91 -->
<g id="node92" class="node">
<title>91</title>
<ellipse fill="black" stroke="black" cx="133.8" cy="-81" rx="1.8" ry="1.8"/>
</g>
<!-- 90&#45;&#45;91 -->
<g id="edge91" class="edge">
<title>90&#45;&#45;91</title>
<path fill="none" stroke="black" d="M133.8,-118.35C133.8,-112.64 133.8,-89.09 133.8,-83.29"/>
</g>
<!-- 92 -->
<g id="node93" class="node">
<title>92</title>
<ellipse fill="black" stroke="black" cx="133.8" cy="-41.4" rx="1.8" ry="1.8"/>
</g>
<!-- 91&#45;&#45;92 -->
<g id="edge92" class="edge">
<title>91&#45;&#45;92</title>
<path fill="none" stroke="black" d="M133.8,-78.75C133.8,-73.04 133.8,-49.49 133.8,-43.69"/>
</g>
<!-- 93 -->
<g id="node94" class="node">
<title>93</title>
<ellipse fill="black" stroke="black" cx="122.8" cy="-1.8" rx="1.8" ry="1.8"/>
</g>
<!-- 92&#45;&#45;93 -->
<g id="edge93" class="edge">
<title>92&#45;&#45;93</title>
<path fill="none" stroke="black" d="M133.43,-39.15C131.7,-33.24 124.38,-8.19 123.02,-3.54"/>
</g>
<!-- 94 -->
<g id="node95" class="node">
<title>94</title>
<ellipse fill="black" stroke="black" cx="144.8" cy="-1.8" rx="1.8" ry="1.8"/>
</g>
<!-- 92&#45;&#45;94 -->
<g id="edge94" class="edge">
<title>92&#45;&#45;94</title>
<path fill="none" stroke="black" d="M134.17,-39.15C135.9,-33.24 143.22,-8.19 144.58,-3.54"/>
</g>
</g>
</svg>
