<?xml version="1.0" encoding="UTF-8" standalone="no"?>
<!DOCTYPE svg PUBLIC "-//W3C//DTD SVG 1.1//EN"
 "http://www.w3.org/Graphics/SVG/1.1/DTD/svg11.dtd">
<!-- Generated by graphviz version 8.1.0 (20230707.0739)
 -->
<!-- Pages: 1 -->
<svg width="111pt" height="1509pt"
 viewBox="0.00 0.00 110.60 1509.20" xmlns="http://www.w3.org/2000/svg" xmlns:xlink="http://www.w3.org/1999/xlink">
<g id="graph0" class="graph" transform="scale(1 1) rotate(0) translate(4 1505.2)">
<polygon fill="white" stroke="none" points="-4,4 -4,-1505.2 106.6,-1505.2 106.6,4 -4,4"/>
<!-- 0 -->
<g id="node1" class="node">
<title>0</title>
<ellipse fill="black" stroke="black" cx="45.8" cy="-1499.4" rx="1.8" ry="1.8"/>
</g>
<!-- 1 -->
<g id="node2" class="node">
<title>1</title>
<ellipse fill="black" stroke="black" cx="45.8" cy="-1459.8" rx="1.8" ry="1.8"/>
</g>
<!-- 0&#45;&#45;1 -->
<g id="edge1" class="edge">
<title>0&#45;&#45;1</title>
<path fill="none" stroke="black" d="M45.8,-1497.15C45.8,-1491.44 45.8,-1467.89 45.8,-1462.09"/>
</g>
<!-- 2 -->
<g id="node3" class="node">
<title>2</title>
<ellipse fill="black" stroke="black" cx="45.8" cy="-1420.2" rx="1.8" ry="1.8"/>
</g>
<!-- 1&#45;&#45;2 -->
<g id="edge2" class="edge">
<title>1&#45;&#45;2</title>
<path fill="none" stroke="black" d="M45.8,-1457.55C45.8,-1451.84 45.8,-1428.29 45.8,-1422.49"/>
</g>
<!-- 3 -->
<g id="node4" class="node">
<title>3</title>
<ellipse fill="black" stroke="black" cx="45.8" cy="-1380.6" rx="1.8" ry="1.8"/>
</g>
<!-- 2&#45;&#45;3 -->
<g id="edge3" class="edge">
<title>2&#45;&#45;3</title>
<path fill="none" stroke="black" d="M45.8,-1417.95C45.8,-1412.24 45.8,-1388.69 45.8,-1382.89"/>
</g>
<!-- 4 -->
<g id="node5" class="node">
<title>4</title>
<ellipse fill="black" stroke="black" cx="45.8" cy="-1341" rx="1.8" ry="1.8"/>
</g>
<!-- 3&#45;&#45;4 -->
<g id="edge4" class="edge">
<title>3&#45;&#45;4</title>
<path fill="none" stroke="black" d="M45.8,-1378.35C45.8,-1372.64 45.8,-1349.09 45.8,-1343.29"/>
</g>
<!-- 5 -->
<g id="node6" class="node">
<title>5</title>
<ellipse fill="black" stroke="black" cx="34.8" cy="-1301.4" rx="1.8" ry="1.8"/>
</g>
<!-- 4&#45;&#45;5 -->
<g id="edge5" class="edge">
<title>4&#45;&#45;5</title>
<path fill="none" stroke="black" d="M45.43,-1338.75C43.7,-1332.84 36.38,-1307.79 35.02,-1303.14"/>
</g>
<!-- 6 -->
<g id="node7" class="node">
<title>6</title>
<ellipse fill="black" stroke="black" cx="56.8" cy="-1301.4" rx="1.8" ry="1.8"/>
</g>
<!-- 4&#45;&#45;6 -->
<g id="edge6" class="edge">
<title>4&#45;&#45;6</title>
<path fill="none" stroke="black" d="M46.17,-1338.75C47.9,-1332.84 55.22,-1307.79 56.58,-1303.14"/>
</g>
<!-- 7 -->
<g id="node8" class="node">
<title>7</title>
<ellipse fill="black" stroke="black" cx="23.8" cy="-1261.8" rx="1.8" ry="1.8"/>
</g>
<!-- 5&#45;&#45;7 -->
<g id="edge7" class="edge">
<title>5&#45;&#45;7</title>
<path fill="none" stroke="black" d="M34.43,-1299.15C32.7,-1293.24 25.38,-1268.19 24.02,-1263.54"/>
</g>
<!-- 8 -->
<g id="node9" class="node">
<title>8</title>
<ellipse fill="black" stroke="black" cx="45.8" cy="-1261.8" rx="1.8" ry="1.8"/>
</g>
<!-- 5&#45;&#45;8 -->
<g id="edge8" class="edge">
<title>5&#45;&#45;8</title>
<path fill="none" stroke="black" d="M35.17,-1299.15C36.9,-1293.24 44.22,-1268.19 45.58,-1263.54"/>
</g>
<!-- 17 -->
<g id="node18" class="node">
<title>17</title>
<ellipse fill="black" stroke="black" cx="23.8" cy="-1222.2" rx="1.8" ry="1.8"/>
</g>
<!-- 7&#45;&#45;17 -->
<g id="edge17" class="edge">
<title>7&#45;&#45;17</title>
<path fill="none" stroke="black" d="M23.8,-1259.55C23.8,-1253.84 23.8,-1230.29 23.8,-1224.49"/>
</g>
<!-- 9 -->
<g id="node10" class="node">
<title>9</title>
<ellipse fill="black" stroke="black" cx="45.8" cy="-1222.2" rx="1.8" ry="1.8"/>
</g>
<!-- 8&#45;&#45;9 -->
<g id="edge9" class="edge">
<title>8&#45;&#45;9</title>
<path fill="none" stroke="black" d="M45.8,-1259.55C45.8,-1253.84 45.8,-1230.29 45.8,-1224.49"/>
</g>
<!-- 10 -->
<g id="node11" class="node">
<title>10</title>
<ellipse fill="black" stroke="black" cx="45.8" cy="-1182.6" rx="1.8" ry="1.8"/>
</g>
<!-- 9&#45;&#45;10 -->
<g id="edge10" class="edge">
<title>9&#45;&#45;10</title>
<path fill="none" stroke="black" d="M45.8,-1219.95C45.8,-1214.24 45.8,-1190.69 45.8,-1184.89"/>
</g>
<!-- 11 -->
<g id="node12" class="node">
<title>11</title>
<ellipse fill="black" stroke="black" cx="45.8" cy="-1143" rx="1.8" ry="1.8"/>
</g>
<!-- 10&#45;&#45;11 -->
<g id="edge11" class="edge">
<title>10&#45;&#45;11</title>
<path fill="none" stroke="black" d="M45.8,-1180.35C45.8,-1174.64 45.8,-1151.09 45.8,-1145.29"/>
</g>
<!-- 12 -->
<g id="node13" class="node">
<title>12</title>
<ellipse fill="black" stroke="black" cx="45.8" cy="-1103.4" rx="1.8" ry="1.8"/>
</g>
<!-- 11&#45;&#45;12 -->
<g id="edge12" class="edge">
<title>11&#45;&#45;12</title>
<path fill="none" stroke="black" d="M45.8,-1140.75C45.8,-1135.04 45.8,-1111.49 45.8,-1105.69"/>
</g>
<!-- 13 -->
<g id="node14" class="node">
<title>13</title>
<ellipse fill="black" stroke="black" cx="45.8" cy="-1063.8" rx="1.8" ry="1.8"/>
</g>
<!-- 12&#45;&#45;13 -->
<g id="edge13" class="edge">
<title>12&#45;&#45;13</title>
<path fill="none" stroke="black" d="M45.8,-1101.15C45.8,-1095.44 45.8,-1071.89 45.8,-1066.09"/>
</g>
<!-- 14 -->
<g id="node15" class="node">
<title>14</title>
<ellipse fill="black" stroke="black" cx="45.8" cy="-1024.2" rx="1.8" ry="1.8"/>
</g>
<!-- 13&#45;&#45;14 -->
<g id="edge14" class="edge">
<title>13&#45;&#45;14</title>
<path fill="none" stroke="black" d="M45.8,-1061.55C45.8,-1055.84 45.8,-1032.29 45.8,-1026.49"/>
</g>
<!-- 15 -->
<g id="node16" class="node">
<title>15</title>
<ellipse fill="black" stroke="black" cx="34.8" cy="-984.6" rx="1.8" ry="1.8"/>
</g>
<!-- 14&#45;&#45;15 -->
<g id="edge15" class="edge">
<title>14&#45;&#45;15</title>
<path fill="none" stroke="black" d="M45.43,-1021.95C43.7,-1016.04 36.38,-990.99 35.02,-986.34"/>
</g>
<!-- 16 -->
<g id="node17" class="node">
<title>16</title>
<ellipse fill="black" stroke="black" cx="56.8" cy="-984.6" rx="1.8" ry="1.8"/>
</g>
<!-- 14&#45;&#45;16 -->
<g id="edge16" class="edge">
<title>14&#45;&#45;16</title>
<path fill="none" stroke="black" d="M46.17,-1021.95C47.9,-1016.04 55.22,-990.99 56.58,-986.34"/>
</g>
<!-- 21 -->
<g id="node22" class="node">
<title>21</title>
<ellipse fill="black" stroke="black" cx="23.8" cy="-945" rx="1.8" ry="1.8"/>
</g>
<!-- 15&#45;&#45;21 -->
<g id="edge21" class="edge">
<title>15&#45;&#45;21</title>
<path fill="none" stroke="black" d="M34.43,-982.35C32.7,-976.44 25.38,-951.39 24.02,-946.74"/>
</g>
<!-- 22 -->
<g id="node23" class="node">
<title>22</title>
<ellipse fill="black" stroke="black" cx="45.8" cy="-945" rx="1.8" ry="1.8"/>
</g>
<!-- 15&#45;&#45;22 -->
<g id="edge22" class="edge">
<title>15&#45;&#45;22</title>
<path fill="none" stroke="black" d="M35.17,-982.35C36.9,-976.44 44.22,-951.39 45.58,-946.74"/>
</g>
<!-- 18 -->
<g id="node19" class="node">
<title>18</title>
<ellipse fill="black" stroke="black" cx="23.8" cy="-1182.6" rx="1.8" ry="1.8"/>
</g>
<!-- 17&#45;&#45;18 -->
<g id="edge18" class="edge">
<title>17&#45;&#45;18</title>
<path fill="none" stroke="black" d="M23.8,-1219.95C23.8,-1214.24 23.8,-1190.69 23.8,-1184.89"/>
</g>
<!-- 19 -->
<g id="node20" class="node">
<title>19</title>
<ellipse fill="black" stroke="black" cx="1.8" cy="-1143" rx="1.8" ry="1.8"/>
</g>
<!-- 18&#45;&#45;19 -->
<g id="edge19" class="edge">
<title>18&#45;&#45;19</title>
<path fill="none" stroke="black" d="M23.26,-1180.67C20.19,-1175.42 5.06,-1149.57 2.25,-1144.77"/>
</g>
<!-- 20 -->
<g id="node21" class="node">
<title>20</title>
<ellipse fill="black" stroke="black" cx="23.8" cy="-1143" rx="1.8" ry="1.8"/>
</g>
<!-- 18&#45;&#45;20 -->
<g id="edge20" class="edge">
<title>18&#45;&#45;20</title>
<path fill="none" stroke="black" d="M23.8,-1180.35C23.8,-1174.64 23.8,-1151.09 23.8,-1145.29"/>
</g>
<!-- 45 -->
<g id="node46" class="node">
<title>45</title>
<ellipse fill="black" stroke="black" cx="23.8" cy="-905.4" rx="1.8" ry="1.8"/>
</g>
<!-- 21&#45;&#45;45 -->
<g id="edge45" class="edge">
<title>21&#45;&#45;45</title>
<path fill="none" stroke="black" d="M23.8,-942.75C23.8,-937.04 23.8,-913.49 23.8,-907.69"/>
</g>
<!-- 23 -->
<g id="node24" class="node">
<title>23</title>
<ellipse fill="black" stroke="black" cx="45.8" cy="-905.4" rx="1.8" ry="1.8"/>
</g>
<!-- 22&#45;&#45;23 -->
<g id="edge23" class="edge">
<title>22&#45;&#45;23</title>
<path fill="none" stroke="black" d="M45.8,-942.75C45.8,-937.04 45.8,-913.49 45.8,-907.69"/>
</g>
<!-- 24 -->
<g id="node25" class="node">
<title>24</title>
<ellipse fill="black" stroke="black" cx="45.8" cy="-865.8" rx="1.8" ry="1.8"/>
</g>
<!-- 23&#45;&#45;24 -->
<g id="edge24" class="edge">
<title>23&#45;&#45;24</title>
<path fill="none" stroke="black" d="M45.8,-903.15C45.8,-897.44 45.8,-873.89 45.8,-868.09"/>
</g>
<!-- 25 -->
<g id="node26" class="node">
<title>25</title>
<ellipse fill="black" stroke="black" cx="45.8" cy="-826.2" rx="1.8" ry="1.8"/>
</g>
<!-- 24&#45;&#45;25 -->
<g id="edge25" class="edge">
<title>24&#45;&#45;25</title>
<path fill="none" stroke="black" d="M45.8,-863.55C45.8,-857.84 45.8,-834.29 45.8,-828.49"/>
</g>
<!-- 26 -->
<g id="node27" class="node">
<title>26</title>
<ellipse fill="black" stroke="black" cx="45.8" cy="-786.6" rx="1.8" ry="1.8"/>
</g>
<!-- 25&#45;&#45;26 -->
<g id="edge26" class="edge">
<title>25&#45;&#45;26</title>
<path fill="none" stroke="black" d="M45.8,-823.95C45.8,-818.24 45.8,-794.69 45.8,-788.89"/>
</g>
<!-- 27 -->
<g id="node28" class="node">
<title>27</title>
<ellipse fill="black" stroke="black" cx="45.8" cy="-747" rx="1.8" ry="1.8"/>
</g>
<!-- 26&#45;&#45;27 -->
<g id="edge27" class="edge">
<title>26&#45;&#45;27</title>
<path fill="none" stroke="black" d="M45.8,-784.35C45.8,-778.64 45.8,-755.09 45.8,-749.29"/>
</g>
<!-- 28 -->
<g id="node29" class="node">
<title>28</title>
<ellipse fill="black" stroke="black" cx="45.8" cy="-707.4" rx="1.8" ry="1.8"/>
</g>
<!-- 27&#45;&#45;28 -->
<g id="edge28" class="edge">
<title>27&#45;&#45;28</title>
<path fill="none" stroke="black" d="M45.8,-744.75C45.8,-739.04 45.8,-715.49 45.8,-709.69"/>
</g>
<!-- 29 -->
<g id="node30" class="node">
<title>29</title>
<ellipse fill="black" stroke="black" cx="45.8" cy="-667.8" rx="1.8" ry="1.8"/>
</g>
<!-- 28&#45;&#45;29 -->
<g id="edge29" class="edge">
<title>28&#45;&#45;29</title>
<path fill="none" stroke="black" d="M45.8,-705.15C45.8,-699.44 45.8,-675.89 45.8,-670.09"/>
</g>
<!-- 30 -->
<g id="node31" class="node">
<title>30</title>
<ellipse fill="black" stroke="black" cx="67.8" cy="-667.8" rx="1.8" ry="1.8"/>
</g>
<!-- 28&#45;&#45;30 -->
<g id="edge30" class="edge">
<title>28&#45;&#45;30</title>
<path fill="none" stroke="black" d="M46.34,-705.47C49.41,-700.22 64.54,-674.37 67.35,-669.57"/>
</g>
<!-- 31 -->
<g id="node32" class="node">
<title>31</title>
<ellipse fill="black" stroke="black" cx="45.8" cy="-628.2" rx="1.8" ry="1.8"/>
</g>
<!-- 29&#45;&#45;31 -->
<g id="edge31" class="edge">
<title>29&#45;&#45;31</title>
<path fill="none" stroke="black" d="M45.8,-665.55C45.8,-659.84 45.8,-636.29 45.8,-630.49"/>
</g>
<!-- 32 -->
<g id="node33" class="node">
<title>32</title>
<ellipse fill="black" stroke="black" cx="67.8" cy="-628.2" rx="1.8" ry="1.8"/>
</g>
<!-- 29&#45;&#45;32 -->
<g id="edge32" class="edge">
<title>29&#45;&#45;32</title>
<path fill="none" stroke="black" d="M46.34,-665.87C49.41,-660.62 64.54,-634.77 67.35,-629.97"/>
</g>
<!-- 41 -->
<g id="node42" class="node">
<title>41</title>
<ellipse fill="black" stroke="black" cx="45.8" cy="-588.6" rx="1.8" ry="1.8"/>
</g>
<!-- 31&#45;&#45;41 -->
<g id="edge41" class="edge">
<title>31&#45;&#45;41</title>
<path fill="none" stroke="black" d="M45.8,-625.95C45.8,-620.24 45.8,-596.69 45.8,-590.89"/>
</g>
<!-- 33 -->
<g id="node34" class="node">
<title>33</title>
<ellipse fill="black" stroke="black" cx="67.8" cy="-588.6" rx="1.8" ry="1.8"/>
</g>
<!-- 32&#45;&#45;33 -->
<g id="edge33" class="edge">
<title>32&#45;&#45;33</title>
<path fill="none" stroke="black" d="M67.8,-625.95C67.8,-620.24 67.8,-596.69 67.8,-590.89"/>
</g>
<!-- 34 -->
<g id="node35" class="node">
<title>34</title>
<ellipse fill="black" stroke="black" cx="67.8" cy="-549" rx="1.8" ry="1.8"/>
</g>
<!-- 33&#45;&#45;34 -->
<g id="edge34" class="edge">
<title>33&#45;&#45;34</title>
<path fill="none" stroke="black" d="M67.8,-586.35C67.8,-580.64 67.8,-557.09 67.8,-551.29"/>
</g>
<!-- 35 -->
<g id="node36" class="node">
<title>35</title>
<ellipse fill="black" stroke="black" cx="67.8" cy="-509.4" rx="1.8" ry="1.8"/>
</g>
<!-- 34&#45;&#45;35 -->
<g id="edge35" class="edge">
<title>34&#45;&#45;35</title>
<path fill="none" stroke="black" d="M67.8,-546.75C67.8,-541.04 67.8,-517.49 67.8,-511.69"/>
</g>
<!-- 36 -->
<g id="node37" class="node">
<title>36</title>
<ellipse fill="black" stroke="black" cx="67.8" cy="-469.8" rx="1.8" ry="1.8"/>
</g>
<!-- 35&#45;&#45;36 -->
<g id="edge36" class="edge">
<title>35&#45;&#45;36</title>
<path fill="none" stroke="black" d="M67.8,-507.15C67.8,-501.44 67.8,-477.89 67.8,-472.09"/>
</g>
<!-- 37 -->
<g id="node38" class="node">
<title>37</title>
<ellipse fill="black" stroke="black" cx="67.8" cy="-430.2" rx="1.8" ry="1.8"/>
</g>
<!-- 36&#45;&#45;37 -->
<g id="edge37" class="edge">
<title>36&#45;&#45;37</title>
<path fill="none" stroke="black" d="M67.8,-467.55C67.8,-461.84 67.8,-438.29 67.8,-432.49"/>
</g>
<!-- 38 -->
<g id="node39" class="node">
<title>38</title>
<ellipse fill="black" stroke="black" cx="67.8" cy="-390.6" rx="1.8" ry="1.8"/>
</g>
<!-- 37&#45;&#45;38 -->
<g id="edge38" class="edge">
<title>37&#45;&#45;38</title>
<path fill="none" stroke="black" d="M67.8,-427.95C67.8,-422.24 67.8,-398.69 67.8,-392.89"/>
</g>
<!-- 39 -->
<g id="node40" class="node">
<title>39</title>
<ellipse fill="black" stroke="black" cx="67.8" cy="-351" rx="1.8" ry="1.8"/>
</g>
<!-- 38&#45;&#45;39 -->
<g id="edge39" class="edge">
<title>38&#45;&#45;39</title>
<path fill="none" stroke="black" d="M67.8,-388.35C67.8,-382.64 67.8,-359.09 67.8,-353.29"/>
</g>
<!-- 40 -->
<g id="node41" class="node">
<title>40</title>
<ellipse fill="black" stroke="black" cx="89.8" cy="-351" rx="1.8" ry="1.8"/>
</g>
<!-- 38&#45;&#45;40 -->
<g id="edge40" class="edge">
<title>38&#45;&#45;40</title>
<path fill="none" stroke="black" d="M68.34,-388.67C71.41,-383.42 86.54,-357.57 89.35,-352.77"/>
</g>
<!-- 49 -->
<g id="node50" class="node">
<title>49</title>
<ellipse fill="black" stroke="black" cx="67.8" cy="-311.4" rx="1.8" ry="1.8"/>
</g>
<!-- 39&#45;&#45;49 -->
<g id="edge49" class="edge">
<title>39&#45;&#45;49</title>
<path fill="none" stroke="black" d="M67.8,-348.75C67.8,-343.04 67.8,-319.49 67.8,-313.69"/>
</g>
<!-- 50 -->
<g id="node51" class="node">
<title>50</title>
<ellipse fill="black" stroke="black" cx="89.8" cy="-311.4" rx="1.8" ry="1.8"/>
</g>
<!-- 39&#45;&#45;50 -->
<g id="edge50" class="edge">
<title>39&#45;&#45;50</title>
<path fill="none" stroke="black" d="M68.34,-349.07C71.41,-343.82 86.54,-317.97 89.35,-313.17"/>
</g>
<!-- 42 -->
<g id="node43" class="node">
<title>42</title>
<ellipse fill="black" stroke="black" cx="45.8" cy="-549" rx="1.8" ry="1.8"/>
</g>
<!-- 41&#45;&#45;42 -->
<g id="edge42" class="edge">
<title>41&#45;&#45;42</title>
<path fill="none" stroke="black" d="M45.8,-586.35C45.8,-580.64 45.8,-557.09 45.8,-551.29"/>
</g>
<!-- 43 -->
<g id="node44" class="node">
<title>43</title>
<ellipse fill="black" stroke="black" cx="23.8" cy="-509.4" rx="1.8" ry="1.8"/>
</g>
<!-- 42&#45;&#45;43 -->
<g id="edge43" class="edge">
<title>42&#45;&#45;43</title>
<path fill="none" stroke="black" d="M45.26,-547.07C42.19,-541.82 27.06,-515.97 24.25,-511.17"/>
</g>
<!-- 44 -->
<g id="node45" class="node">
<title>44</title>
<ellipse fill="black" stroke="black" cx="45.8" cy="-509.4" rx="1.8" ry="1.8"/>
</g>
<!-- 42&#45;&#45;44 -->
<g id="edge44" class="edge">
<title>42&#45;&#45;44</title>
<path fill="none" stroke="black" d="M45.8,-546.75C45.8,-541.04 45.8,-517.49 45.8,-511.69"/>
</g>
<!-- 70 -->
<g id="node71" class="node">
<title>70</title>
<ellipse fill="black" stroke="black" cx="45.8" cy="-469.8" rx="1.8" ry="1.8"/>
</g>
<!-- 44&#45;&#45;70 -->
<g id="edge70" class="edge">
<title>44&#45;&#45;70</title>
<path fill="none" stroke="black" d="M45.8,-507.15C45.8,-501.44 45.8,-477.89 45.8,-472.09"/>
</g>
<!-- 46 -->
<g id="node47" class="node">
<title>46</title>
<ellipse fill="black" stroke="black" cx="23.8" cy="-865.8" rx="1.8" ry="1.8"/>
</g>
<!-- 45&#45;&#45;46 -->
<g id="edge46" class="edge">
<title>45&#45;&#45;46</title>
<path fill="none" stroke="black" d="M23.8,-903.15C23.8,-897.44 23.8,-873.89 23.8,-868.09"/>
</g>
<!-- 47 -->
<g id="node48" class="node">
<title>47</title>
<ellipse fill="black" stroke="black" cx="1.8" cy="-826.2" rx="1.8" ry="1.8"/>
</g>
<!-- 46&#45;&#45;47 -->
<g id="edge47" class="edge">
<title>46&#45;&#45;47</title>
<path fill="none" stroke="black" d="M23.26,-863.87C20.19,-858.62 5.06,-832.77 2.25,-827.97"/>
</g>
<!-- 48 -->
<g id="node49" class="node">
<title>48</title>
<ellipse fill="black" stroke="black" cx="23.8" cy="-826.2" rx="1.8" ry="1.8"/>
</g>
<!-- 46&#45;&#45;48 -->
<g id="edge48" class="edge">
<title>46&#45;&#45;48</title>
<path fill="none" stroke="black" d="M23.8,-863.55C23.8,-857.84 23.8,-834.29 23.8,-828.49"/>
</g>
<!-- 63 -->
<g id="node64" class="node">
<title>63</title>
<ellipse fill="black" stroke="black" cx="23.8" cy="-786.6" rx="1.8" ry="1.8"/>
</g>
<!-- 48&#45;&#45;63 -->
<g id="edge63" class="edge">
<title>48&#45;&#45;63</title>
<path fill="none" stroke="black" d="M23.8,-823.95C23.8,-818.24 23.8,-794.69 23.8,-788.89"/>
</g>
<!-- 59 -->
<g id="node60" class="node">
<title>59</title>
<ellipse fill="black" stroke="black" cx="67.8" cy="-271.8" rx="1.8" ry="1.8"/>
</g>
<!-- 49&#45;&#45;59 -->
<g id="edge59" class="edge">
<title>49&#45;&#45;59</title>
<path fill="none" stroke="black" d="M67.8,-309.15C67.8,-303.44 67.8,-279.89 67.8,-274.09"/>
</g>
<!-- 51 -->
<g id="node52" class="node">
<title>51</title>
<ellipse fill="black" stroke="black" cx="89.8" cy="-271.8" rx="1.8" ry="1.8"/>
</g>
<!-- 50&#45;&#45;51 -->
<g id="edge51" class="edge">
<title>50&#45;&#45;51</title>
<path fill="none" stroke="black" d="M89.8,-309.15C89.8,-303.44 89.8,-279.89 89.8,-274.09"/>
</g>
<!-- 52 -->
<g id="node53" class="node">
<title>52</title>
<ellipse fill="black" stroke="black" cx="89.8" cy="-232.2" rx="1.8" ry="1.8"/>
</g>
<!-- 51&#45;&#45;52 -->
<g id="edge52" class="edge">
<title>51&#45;&#45;52</title>
<path fill="none" stroke="black" d="M89.8,-269.55C89.8,-263.84 89.8,-240.29 89.8,-234.49"/>
</g>
<!-- 53 -->
<g id="node54" class="node">
<title>53</title>
<ellipse fill="black" stroke="black" cx="89.8" cy="-176.4" rx="1.8" ry="1.8"/>
</g>
<!-- 52&#45;&#45;53 -->
<g id="edge53" class="edge">
<title>52&#45;&#45;53</title>
<path fill="none" stroke="black" d="M89.8,-230.27C89.8,-223.79 89.8,-185.63 89.8,-178.54"/>
</g>
<!-- 54 -->
<g id="node55" class="node">
<title>54</title>
<ellipse fill="black" stroke="black" cx="89.8" cy="-120.6" rx="1.8" ry="1.8"/>
</g>
<!-- 53&#45;&#45;54 -->
<g id="edge54" class="edge">
<title>53&#45;&#45;54</title>
<path fill="none" stroke="black" d="M89.8,-174.47C89.8,-167.99 89.8,-129.83 89.8,-122.74"/>
</g>
<!-- 55 -->
<g id="node56" class="node">
<title>55</title>
<ellipse fill="black" stroke="black" cx="89.8" cy="-81" rx="1.8" ry="1.8"/>
</g>
<!-- 54&#45;&#45;55 -->
<g id="edge55" class="edge">
<title>54&#45;&#45;55</title>
<path fill="none" stroke="black" d="M89.8,-118.35C89.8,-112.64 89.8,-89.09 89.8,-83.29"/>
</g>
<!-- 56 -->
<g id="node57" class="node">
<title>56</title>
<ellipse fill="black" stroke="black" cx="89.8" cy="-41.4" rx="1.8" ry="1.8"/>
</g>
<!-- 55&#45;&#45;56 -->
<g id="edge56" class="edge">
<title>55&#45;&#45;56</title>
<path fill="none" stroke="black" d="M89.8,-78.75C89.8,-73.04 89.8,-49.49 89.8,-43.69"/>
</g>
<!-- 57 -->
<g id="node58" class="node">
<title>57</title>
<ellipse fill="black" stroke="black" cx="78.8" cy="-1.8" rx="1.8" ry="1.8"/>
</g>
<!-- 56&#45;&#45;57 -->
<g id="edge57" class="edge">
<title>56&#45;&#45;57</title>
<path fill="none" stroke="black" d="M89.43,-39.15C87.7,-33.24 80.38,-8.19 79.02,-3.54"/>
</g>
<!-- 58 -->
<g id="node59" class="node">
<title>58</title>
<ellipse fill="black" stroke="black" cx="100.8" cy="-1.8" rx="1.8" ry="1.8"/>
</g>
<!-- 56&#45;&#45;58 -->
<g id="edge58" class="edge">
<title>56&#45;&#45;58</title>
<path fill="none" stroke="black" d="M90.17,-39.15C91.9,-33.24 99.22,-8.19 100.58,-3.54"/>
</g>
<!-- 60 -->
<g id="node61" class="node">
<title>60</title>
<ellipse fill="black" stroke="black" cx="67.8" cy="-232.2" rx="1.8" ry="1.8"/>
</g>
<!-- 59&#45;&#45;60 -->
<g id="edge60" class="edge">
<title>59&#45;&#45;60</title>
<path fill="none" stroke="black" d="M67.8,-269.55C67.8,-263.84 67.8,-240.29 67.8,-234.49"/>
</g>
<!-- 61 -->
<g id="node62" class="node">
<title>61</title>
<ellipse fill="red" stroke="black" cx="29.8" cy="-176.4" rx="18" ry="18"/>
</g>
<!-- 60&#45;&#45;61 -->
<g id="edge61" class="edge">
<title>60&#45;&#45;61</title>
<path fill="none" stroke="black" d="M67.14,-230.27C63.95,-225.75 49.84,-205.78 39.91,-191.72"/>
</g>
<!-- 62 -->
<g id="node63" class="node">
<title>62</title>
<ellipse fill="black" stroke="black" cx="67.8" cy="-176.4" rx="1.8" ry="1.8"/>
</g>
<!-- 60&#45;&#45;62 -->
<g id="edge62" class="edge">
<title>60&#45;&#45;62</title>
<path fill="none" stroke="black" d="M67.8,-230.27C67.8,-223.79 67.8,-185.63 67.8,-178.54"/>
</g>
<!-- 64 -->
<g id="node65" class="node">
<title>64</title>
<ellipse fill="black" stroke="black" cx="23.8" cy="-747" rx="1.8" ry="1.8"/>
</g>
<!-- 63&#45;&#45;64 -->
<g id="edge64" class="edge">
<title>63&#45;&#45;64</title>
<path fill="none" stroke="black" d="M23.8,-784.35C23.8,-778.64 23.8,-755.09 23.8,-749.29"/>
</g>
<!-- 65 -->
<g id="node66" class="node">
<title>65</title>
<ellipse fill="black" stroke="black" cx="23.8" cy="-707.4" rx="1.8" ry="1.8"/>
</g>
<!-- 64&#45;&#45;65 -->
<g id="edge65" class="edge">
<title>64&#45;&#45;65</title>
<path fill="none" stroke="black" d="M23.8,-744.75C23.8,-739.04 23.8,-715.49 23.8,-709.69"/>
</g>
<!-- 66 -->
<g id="node67" class="node">
<title>66</title>
<ellipse fill="black" stroke="black" cx="23.8" cy="-667.8" rx="1.8" ry="1.8"/>
</g>
<!-- 65&#45;&#45;66 -->
<g id="edge66" class="edge">
<title>65&#45;&#45;66</title>
<path fill="none" stroke="black" d="M23.8,-705.15C23.8,-699.44 23.8,-675.89 23.8,-670.09"/>
</g>
<!-- 67 -->
<g id="node68" class="node">
<title>67</title>
<ellipse fill="black" stroke="black" cx="23.8" cy="-628.2" rx="1.8" ry="1.8"/>
</g>
<!-- 66&#45;&#45;67 -->
<g id="edge67" class="edge">
<title>66&#45;&#45;67</title>
<path fill="none" stroke="black" d="M23.8,-665.55C23.8,-659.84 23.8,-636.29 23.8,-630.49"/>
</g>
<!-- 68 -->
<g id="node69" class="node">
<title>68</title>
<ellipse fill="black" stroke="black" cx="1.8" cy="-588.6" rx="1.8" ry="1.8"/>
</g>
<!-- 67&#45;&#45;68 -->
<g id="edge68" class="edge">
<title>67&#45;&#45;68</title>
<path fill="none" stroke="black" d="M23.26,-626.27C20.19,-621.02 5.06,-595.17 2.25,-590.37"/>
</g>
<!-- 69 -->
<g id="node70" class="node">
<title>69</title>
<ellipse fill="black" stroke="black" cx="23.8" cy="-588.6" rx="1.8" ry="1.8"/>
</g>
<!-- 67&#45;&#45;69 -->
<g id="edge69" class="edge">
<title>67&#45;&#45;69</title>
<path fill="none" stroke="black" d="M23.8,-625.95C23.8,-620.24 23.8,-596.69 23.8,-590.89"/>
</g>
<!-- 71 -->
<g id="node72" class="node">
<title>71</title>
<ellipse fill="black" stroke="black" cx="45.8" cy="-430.2" rx="1.8" ry="1.8"/>
</g>
<!-- 70&#45;&#45;71 -->
<g id="edge71" class="edge">
<title>70&#45;&#45;71</title>
<path fill="none" stroke="black" d="M45.8,-467.55C45.8,-461.84 45.8,-438.29 45.8,-432.49"/>
</g>
<!-- 72 -->
<g id="node73" class="node">
<title>72</title>
<ellipse fill="black" stroke="black" cx="45.8" cy="-390.6" rx="1.8" ry="1.8"/>
</g>
<!-- 71&#45;&#45;72 -->
<g id="edge72" class="edge">
<title>71&#45;&#45;72</title>
<path fill="none" stroke="black" d="M45.8,-427.95C45.8,-422.24 45.8,-398.69 45.8,-392.89"/>
</g>
<!-- 73 -->
<g id="node74" class="node">
<title>73</title>
<ellipse fill="black" stroke="black" cx="45.8" cy="-351" rx="1.8" ry="1.8"/>
</g>
<!-- 72&#45;&#45;73 -->
<g id="edge73" class="edge">
<title>72&#45;&#45;73</title>
<path fill="none" stroke="black" d="M45.8,-388.35C45.8,-382.64 45.8,-359.09 45.8,-353.29"/>
</g>
<!-- 74 -->
<g id="node75" class="node">
<title>74</title>
<ellipse fill="black" stroke="black" cx="45.8" cy="-311.4" rx="1.8" ry="1.8"/>
</g>
<!-- 73&#45;&#45;74 -->
<g id="edge74" class="edge">
<title>73&#45;&#45;74</title>
<path fill="none" stroke="black" d="M45.8,-348.75C45.8,-343.04 45.8,-319.49 45.8,-313.69"/>
</g>
<!-- 75 -->
<g id="node76" class="node">
<title>75</title>
<ellipse fill="black" stroke="black" cx="23.8" cy="-271.8" rx="1.8" ry="1.8"/>
</g>
<!-- 74&#45;&#45;75 -->
<g id="edge75" class="edge">
<title>74&#45;&#45;75</title>
<path fill="none" stroke="black" d="M45.26,-309.47C42.19,-304.22 27.06,-278.37 24.25,-273.57"/>
</g>
<!-- 76 -->
<g id="node77" class="node">
<title>76</title>
<ellipse fill="black" stroke="black" cx="45.8" cy="-271.8" rx="1.8" ry="1.8"/>
</g>
<!-- 74&#45;&#45;76 -->
<g id="edge76" class="edge">
<title>74&#45;&#45;76</title>
<path fill="none" stroke="black" d="M45.8,-309.15C45.8,-303.44 45.8,-279.89 45.8,-274.09"/>
</g>
</g>
</svg>
