<?xml version="1.0" encoding="UTF-8" standalone="no"?>
<!DOCTYPE svg PUBLIC "-//W3C//DTD SVG 1.1//EN"
 "http://www.w3.org/Graphics/SVG/1.1/DTD/svg11.dtd">
<!-- Generated by graphviz version 8.1.0 (20230707.0739)
 -->
<!-- Pages: 1 -->
<svg width="155pt" height="2460pt"
 viewBox="0.00 0.00 154.60 2459.60" xmlns="http://www.w3.org/2000/svg" xmlns:xlink="http://www.w3.org/1999/xlink">
<g id="graph0" class="graph" transform="scale(1 1) rotate(0) translate(4 2455.6)">
<polygon fill="white" stroke="none" points="-4,4 -4,-2455.6 150.6,-2455.6 150.6,4 -4,4"/>
<!-- 0 -->
<g id="node1" class="node">
<title>0</title>
<ellipse fill="black" stroke="black" cx="45.8" cy="-2449.8" rx="1.8" ry="1.8"/>
</g>
<!-- 1 -->
<g id="node2" class="node">
<title>1</title>
<ellipse fill="black" stroke="black" cx="45.8" cy="-2410.2" rx="1.8" ry="1.8"/>
</g>
<!-- 0&#45;&#45;1 -->
<g id="edge1" class="edge">
<title>0&#45;&#45;1</title>
<path fill="none" stroke="black" d="M45.8,-2447.55C45.8,-2441.84 45.8,-2418.29 45.8,-2412.49"/>
</g>
<!-- 2 -->
<g id="node3" class="node">
<title>2</title>
<ellipse fill="black" stroke="black" cx="45.8" cy="-2370.6" rx="1.8" ry="1.8"/>
</g>
<!-- 1&#45;&#45;2 -->
<g id="edge2" class="edge">
<title>1&#45;&#45;2</title>
<path fill="none" stroke="black" d="M45.8,-2407.95C45.8,-2402.24 45.8,-2378.69 45.8,-2372.89"/>
</g>
<!-- 3 -->
<g id="node4" class="node">
<title>3</title>
<ellipse fill="black" stroke="black" cx="45.8" cy="-2331" rx="1.8" ry="1.8"/>
</g>
<!-- 2&#45;&#45;3 -->
<g id="edge3" class="edge">
<title>2&#45;&#45;3</title>
<path fill="none" stroke="black" d="M45.8,-2368.35C45.8,-2362.64 45.8,-2339.09 45.8,-2333.29"/>
</g>
<!-- 4 -->
<g id="node5" class="node">
<title>4</title>
<ellipse fill="black" stroke="black" cx="45.8" cy="-2291.4" rx="1.8" ry="1.8"/>
</g>
<!-- 3&#45;&#45;4 -->
<g id="edge4" class="edge">
<title>3&#45;&#45;4</title>
<path fill="none" stroke="black" d="M45.8,-2328.75C45.8,-2323.04 45.8,-2299.49 45.8,-2293.69"/>
</g>
<!-- 5 -->
<g id="node6" class="node">
<title>5</title>
<ellipse fill="black" stroke="black" cx="34.8" cy="-2251.8" rx="1.8" ry="1.8"/>
</g>
<!-- 4&#45;&#45;5 -->
<g id="edge5" class="edge">
<title>4&#45;&#45;5</title>
<path fill="none" stroke="black" d="M45.43,-2289.15C43.7,-2283.24 36.38,-2258.19 35.02,-2253.54"/>
</g>
<!-- 6 -->
<g id="node7" class="node">
<title>6</title>
<ellipse fill="black" stroke="black" cx="56.8" cy="-2251.8" rx="1.8" ry="1.8"/>
</g>
<!-- 4&#45;&#45;6 -->
<g id="edge6" class="edge">
<title>4&#45;&#45;6</title>
<path fill="none" stroke="black" d="M46.17,-2289.15C47.9,-2283.24 55.22,-2258.19 56.58,-2253.54"/>
</g>
<!-- 7 -->
<g id="node8" class="node">
<title>7</title>
<ellipse fill="black" stroke="black" cx="23.8" cy="-2212.2" rx="1.8" ry="1.8"/>
</g>
<!-- 5&#45;&#45;7 -->
<g id="edge7" class="edge">
<title>5&#45;&#45;7</title>
<path fill="none" stroke="black" d="M34.43,-2249.55C32.7,-2243.64 25.38,-2218.59 24.02,-2213.94"/>
</g>
<!-- 8 -->
<g id="node9" class="node">
<title>8</title>
<ellipse fill="black" stroke="black" cx="45.8" cy="-2212.2" rx="1.8" ry="1.8"/>
</g>
<!-- 5&#45;&#45;8 -->
<g id="edge8" class="edge">
<title>5&#45;&#45;8</title>
<path fill="none" stroke="black" d="M35.17,-2249.55C36.9,-2243.64 44.22,-2218.59 45.58,-2213.94"/>
</g>
<!-- 17 -->
<g id="node18" class="node">
<title>17</title>
<ellipse fill="black" stroke="black" cx="23.8" cy="-2172.6" rx="1.8" ry="1.8"/>
</g>
<!-- 7&#45;&#45;17 -->
<g id="edge17" class="edge">
<title>7&#45;&#45;17</title>
<path fill="none" stroke="black" d="M23.8,-2209.95C23.8,-2204.24 23.8,-2180.69 23.8,-2174.89"/>
</g>
<!-- 9 -->
<g id="node10" class="node">
<title>9</title>
<ellipse fill="black" stroke="black" cx="45.8" cy="-2172.6" rx="1.8" ry="1.8"/>
</g>
<!-- 8&#45;&#45;9 -->
<g id="edge9" class="edge">
<title>8&#45;&#45;9</title>
<path fill="none" stroke="black" d="M45.8,-2209.95C45.8,-2204.24 45.8,-2180.69 45.8,-2174.89"/>
</g>
<!-- 10 -->
<g id="node11" class="node">
<title>10</title>
<ellipse fill="black" stroke="black" cx="45.8" cy="-2133" rx="1.8" ry="1.8"/>
</g>
<!-- 9&#45;&#45;10 -->
<g id="edge10" class="edge">
<title>9&#45;&#45;10</title>
<path fill="none" stroke="black" d="M45.8,-2170.35C45.8,-2164.64 45.8,-2141.09 45.8,-2135.29"/>
</g>
<!-- 11 -->
<g id="node12" class="node">
<title>11</title>
<ellipse fill="black" stroke="black" cx="45.8" cy="-2093.4" rx="1.8" ry="1.8"/>
</g>
<!-- 10&#45;&#45;11 -->
<g id="edge11" class="edge">
<title>10&#45;&#45;11</title>
<path fill="none" stroke="black" d="M45.8,-2130.75C45.8,-2125.04 45.8,-2101.49 45.8,-2095.69"/>
</g>
<!-- 12 -->
<g id="node13" class="node">
<title>12</title>
<ellipse fill="black" stroke="black" cx="45.8" cy="-2053.8" rx="1.8" ry="1.8"/>
</g>
<!-- 11&#45;&#45;12 -->
<g id="edge12" class="edge">
<title>11&#45;&#45;12</title>
<path fill="none" stroke="black" d="M45.8,-2091.15C45.8,-2085.44 45.8,-2061.89 45.8,-2056.09"/>
</g>
<!-- 13 -->
<g id="node14" class="node">
<title>13</title>
<ellipse fill="black" stroke="black" cx="45.8" cy="-2014.2" rx="1.8" ry="1.8"/>
</g>
<!-- 12&#45;&#45;13 -->
<g id="edge13" class="edge">
<title>12&#45;&#45;13</title>
<path fill="none" stroke="black" d="M45.8,-2051.55C45.8,-2045.84 45.8,-2022.29 45.8,-2016.49"/>
</g>
<!-- 14 -->
<g id="node15" class="node">
<title>14</title>
<ellipse fill="black" stroke="black" cx="45.8" cy="-1974.6" rx="1.8" ry="1.8"/>
</g>
<!-- 13&#45;&#45;14 -->
<g id="edge14" class="edge">
<title>13&#45;&#45;14</title>
<path fill="none" stroke="black" d="M45.8,-2011.95C45.8,-2006.24 45.8,-1982.69 45.8,-1976.89"/>
</g>
<!-- 15 -->
<g id="node16" class="node">
<title>15</title>
<ellipse fill="black" stroke="black" cx="34.8" cy="-1935" rx="1.8" ry="1.8"/>
</g>
<!-- 14&#45;&#45;15 -->
<g id="edge15" class="edge">
<title>14&#45;&#45;15</title>
<path fill="none" stroke="black" d="M45.43,-1972.35C43.7,-1966.44 36.38,-1941.39 35.02,-1936.74"/>
</g>
<!-- 16 -->
<g id="node17" class="node">
<title>16</title>
<ellipse fill="black" stroke="black" cx="56.8" cy="-1935" rx="1.8" ry="1.8"/>
</g>
<!-- 14&#45;&#45;16 -->
<g id="edge16" class="edge">
<title>14&#45;&#45;16</title>
<path fill="none" stroke="black" d="M46.17,-1972.35C47.9,-1966.44 55.22,-1941.39 56.58,-1936.74"/>
</g>
<!-- 21 -->
<g id="node22" class="node">
<title>21</title>
<ellipse fill="black" stroke="black" cx="23.8" cy="-1895.4" rx="1.8" ry="1.8"/>
</g>
<!-- 15&#45;&#45;21 -->
<g id="edge21" class="edge">
<title>15&#45;&#45;21</title>
<path fill="none" stroke="black" d="M34.43,-1932.75C32.7,-1926.84 25.38,-1901.79 24.02,-1897.14"/>
</g>
<!-- 22 -->
<g id="node23" class="node">
<title>22</title>
<ellipse fill="black" stroke="black" cx="45.8" cy="-1895.4" rx="1.8" ry="1.8"/>
</g>
<!-- 15&#45;&#45;22 -->
<g id="edge22" class="edge">
<title>15&#45;&#45;22</title>
<path fill="none" stroke="black" d="M35.17,-1932.75C36.9,-1926.84 44.22,-1901.79 45.58,-1897.14"/>
</g>
<!-- 18 -->
<g id="node19" class="node">
<title>18</title>
<ellipse fill="black" stroke="black" cx="23.8" cy="-2133" rx="1.8" ry="1.8"/>
</g>
<!-- 17&#45;&#45;18 -->
<g id="edge18" class="edge">
<title>17&#45;&#45;18</title>
<path fill="none" stroke="black" d="M23.8,-2170.35C23.8,-2164.64 23.8,-2141.09 23.8,-2135.29"/>
</g>
<!-- 19 -->
<g id="node20" class="node">
<title>19</title>
<ellipse fill="black" stroke="black" cx="1.8" cy="-2093.4" rx="1.8" ry="1.8"/>
</g>
<!-- 18&#45;&#45;19 -->
<g id="edge19" class="edge">
<title>18&#45;&#45;19</title>
<path fill="none" stroke="black" d="M23.26,-2131.07C20.19,-2125.82 5.06,-2099.97 2.25,-2095.17"/>
</g>
<!-- 20 -->
<g id="node21" class="node">
<title>20</title>
<ellipse fill="black" stroke="black" cx="23.8" cy="-2093.4" rx="1.8" ry="1.8"/>
</g>
<!-- 18&#45;&#45;20 -->
<g id="edge20" class="edge">
<title>18&#45;&#45;20</title>
<path fill="none" stroke="black" d="M23.8,-2130.75C23.8,-2125.04 23.8,-2101.49 23.8,-2095.69"/>
</g>
<!-- 75 -->
<g id="node76" class="node">
<title>75</title>
<ellipse fill="black" stroke="black" cx="23.8" cy="-1855.8" rx="1.8" ry="1.8"/>
</g>
<!-- 21&#45;&#45;75 -->
<g id="edge75" class="edge">
<title>21&#45;&#45;75</title>
<path fill="none" stroke="black" d="M23.8,-1893.15C23.8,-1887.44 23.8,-1863.89 23.8,-1858.09"/>
</g>
<!-- 23 -->
<g id="node24" class="node">
<title>23</title>
<ellipse fill="black" stroke="black" cx="45.8" cy="-1855.8" rx="1.8" ry="1.8"/>
</g>
<!-- 22&#45;&#45;23 -->
<g id="edge23" class="edge">
<title>22&#45;&#45;23</title>
<path fill="none" stroke="black" d="M45.8,-1893.15C45.8,-1887.44 45.8,-1863.89 45.8,-1858.09"/>
</g>
<!-- 24 -->
<g id="node25" class="node">
<title>24</title>
<ellipse fill="black" stroke="black" cx="45.8" cy="-1816.2" rx="1.8" ry="1.8"/>
</g>
<!-- 23&#45;&#45;24 -->
<g id="edge24" class="edge">
<title>23&#45;&#45;24</title>
<path fill="none" stroke="black" d="M45.8,-1853.55C45.8,-1847.84 45.8,-1824.29 45.8,-1818.49"/>
</g>
<!-- 25 -->
<g id="node26" class="node">
<title>25</title>
<ellipse fill="black" stroke="black" cx="45.8" cy="-1776.6" rx="1.8" ry="1.8"/>
</g>
<!-- 24&#45;&#45;25 -->
<g id="edge25" class="edge">
<title>24&#45;&#45;25</title>
<path fill="none" stroke="black" d="M45.8,-1813.95C45.8,-1808.24 45.8,-1784.69 45.8,-1778.89"/>
</g>
<!-- 26 -->
<g id="node27" class="node">
<title>26</title>
<ellipse fill="black" stroke="black" cx="45.8" cy="-1737" rx="1.8" ry="1.8"/>
</g>
<!-- 25&#45;&#45;26 -->
<g id="edge26" class="edge">
<title>25&#45;&#45;26</title>
<path fill="none" stroke="black" d="M45.8,-1774.35C45.8,-1768.64 45.8,-1745.09 45.8,-1739.29"/>
</g>
<!-- 27 -->
<g id="node28" class="node">
<title>27</title>
<ellipse fill="black" stroke="black" cx="45.8" cy="-1697.4" rx="1.8" ry="1.8"/>
</g>
<!-- 26&#45;&#45;27 -->
<g id="edge27" class="edge">
<title>26&#45;&#45;27</title>
<path fill="none" stroke="black" d="M45.8,-1734.75C45.8,-1729.04 45.8,-1705.49 45.8,-1699.69"/>
</g>
<!-- 28 -->
<g id="node29" class="node">
<title>28</title>
<ellipse fill="black" stroke="black" cx="45.8" cy="-1657.8" rx="1.8" ry="1.8"/>
</g>
<!-- 27&#45;&#45;28 -->
<g id="edge28" class="edge">
<title>27&#45;&#45;28</title>
<path fill="none" stroke="black" d="M45.8,-1695.15C45.8,-1689.44 45.8,-1665.89 45.8,-1660.09"/>
</g>
<!-- 29 -->
<g id="node30" class="node">
<title>29</title>
<ellipse fill="black" stroke="black" cx="34.8" cy="-1618.2" rx="1.8" ry="1.8"/>
</g>
<!-- 28&#45;&#45;29 -->
<g id="edge29" class="edge">
<title>28&#45;&#45;29</title>
<path fill="none" stroke="black" d="M45.43,-1655.55C43.7,-1649.64 36.38,-1624.59 35.02,-1619.94"/>
</g>
<!-- 30 -->
<g id="node31" class="node">
<title>30</title>
<ellipse fill="black" stroke="black" cx="56.8" cy="-1618.2" rx="1.8" ry="1.8"/>
</g>
<!-- 28&#45;&#45;30 -->
<g id="edge30" class="edge">
<title>28&#45;&#45;30</title>
<path fill="none" stroke="black" d="M46.17,-1655.55C47.9,-1649.64 55.22,-1624.59 56.58,-1619.94"/>
</g>
<!-- 31 -->
<g id="node32" class="node">
<title>31</title>
<ellipse fill="black" stroke="black" cx="23.8" cy="-1578.6" rx="1.8" ry="1.8"/>
</g>
<!-- 29&#45;&#45;31 -->
<g id="edge31" class="edge">
<title>29&#45;&#45;31</title>
<path fill="none" stroke="black" d="M34.43,-1615.95C32.7,-1610.04 25.38,-1584.99 24.02,-1580.34"/>
</g>
<!-- 32 -->
<g id="node33" class="node">
<title>32</title>
<ellipse fill="black" stroke="black" cx="45.8" cy="-1578.6" rx="1.8" ry="1.8"/>
</g>
<!-- 29&#45;&#45;32 -->
<g id="edge32" class="edge">
<title>29&#45;&#45;32</title>
<path fill="none" stroke="black" d="M35.17,-1615.95C36.9,-1610.04 44.22,-1584.99 45.58,-1580.34"/>
</g>
<!-- 89 -->
<g id="node90" class="node">
<title>89</title>
<ellipse fill="black" stroke="black" cx="23.8" cy="-1539" rx="1.8" ry="1.8"/>
</g>
<!-- 31&#45;&#45;89 -->
<g id="edge89" class="edge">
<title>31&#45;&#45;89</title>
<path fill="none" stroke="black" d="M23.8,-1576.35C23.8,-1570.64 23.8,-1547.09 23.8,-1541.29"/>
</g>
<!-- 33 -->
<g id="node34" class="node">
<title>33</title>
<ellipse fill="black" stroke="black" cx="45.8" cy="-1539" rx="1.8" ry="1.8"/>
</g>
<!-- 32&#45;&#45;33 -->
<g id="edge33" class="edge">
<title>32&#45;&#45;33</title>
<path fill="none" stroke="black" d="M45.8,-1576.35C45.8,-1570.64 45.8,-1547.09 45.8,-1541.29"/>
</g>
<!-- 34 -->
<g id="node35" class="node">
<title>34</title>
<ellipse fill="black" stroke="black" cx="45.8" cy="-1499.4" rx="1.8" ry="1.8"/>
</g>
<!-- 33&#45;&#45;34 -->
<g id="edge34" class="edge">
<title>33&#45;&#45;34</title>
<path fill="none" stroke="black" d="M45.8,-1536.75C45.8,-1531.04 45.8,-1507.49 45.8,-1501.69"/>
</g>
<!-- 35 -->
<g id="node36" class="node">
<title>35</title>
<ellipse fill="black" stroke="black" cx="45.8" cy="-1459.8" rx="1.8" ry="1.8"/>
</g>
<!-- 34&#45;&#45;35 -->
<g id="edge35" class="edge">
<title>34&#45;&#45;35</title>
<path fill="none" stroke="black" d="M45.8,-1497.15C45.8,-1491.44 45.8,-1467.89 45.8,-1462.09"/>
</g>
<!-- 36 -->
<g id="node37" class="node">
<title>36</title>
<ellipse fill="black" stroke="black" cx="45.8" cy="-1420.2" rx="1.8" ry="1.8"/>
</g>
<!-- 35&#45;&#45;36 -->
<g id="edge36" class="edge">
<title>35&#45;&#45;36</title>
<path fill="none" stroke="black" d="M45.8,-1457.55C45.8,-1451.84 45.8,-1428.29 45.8,-1422.49"/>
</g>
<!-- 37 -->
<g id="node38" class="node">
<title>37</title>
<ellipse fill="black" stroke="black" cx="45.8" cy="-1380.6" rx="1.8" ry="1.8"/>
</g>
<!-- 36&#45;&#45;37 -->
<g id="edge37" class="edge">
<title>36&#45;&#45;37</title>
<path fill="none" stroke="black" d="M45.8,-1417.95C45.8,-1412.24 45.8,-1388.69 45.8,-1382.89"/>
</g>
<!-- 38 -->
<g id="node39" class="node">
<title>38</title>
<ellipse fill="black" stroke="black" cx="45.8" cy="-1341" rx="1.8" ry="1.8"/>
</g>
<!-- 37&#45;&#45;38 -->
<g id="edge38" class="edge">
<title>37&#45;&#45;38</title>
<path fill="none" stroke="black" d="M45.8,-1378.35C45.8,-1372.64 45.8,-1349.09 45.8,-1343.29"/>
</g>
<!-- 39 -->
<g id="node40" class="node">
<title>39</title>
<ellipse fill="black" stroke="black" cx="45.8" cy="-1301.4" rx="1.8" ry="1.8"/>
</g>
<!-- 38&#45;&#45;39 -->
<g id="edge39" class="edge">
<title>38&#45;&#45;39</title>
<path fill="none" stroke="black" d="M45.8,-1338.75C45.8,-1333.04 45.8,-1309.49 45.8,-1303.69"/>
</g>
<!-- 40 -->
<g id="node41" class="node">
<title>40</title>
<ellipse fill="black" stroke="black" cx="67.8" cy="-1301.4" rx="1.8" ry="1.8"/>
</g>
<!-- 38&#45;&#45;40 -->
<g id="edge40" class="edge">
<title>38&#45;&#45;40</title>
<path fill="none" stroke="black" d="M46.34,-1339.07C49.41,-1333.82 64.54,-1307.97 67.35,-1303.17"/>
</g>
<!-- 41 -->
<g id="node42" class="node">
<title>41</title>
<ellipse fill="black" stroke="black" cx="45.8" cy="-1261.8" rx="1.8" ry="1.8"/>
</g>
<!-- 39&#45;&#45;41 -->
<g id="edge41" class="edge">
<title>39&#45;&#45;41</title>
<path fill="none" stroke="black" d="M45.8,-1299.15C45.8,-1293.44 45.8,-1269.89 45.8,-1264.09"/>
</g>
<!-- 42 -->
<g id="node43" class="node">
<title>42</title>
<ellipse fill="black" stroke="black" cx="67.8" cy="-1261.8" rx="1.8" ry="1.8"/>
</g>
<!-- 39&#45;&#45;42 -->
<g id="edge42" class="edge">
<title>39&#45;&#45;42</title>
<path fill="none" stroke="black" d="M46.34,-1299.47C49.41,-1294.22 64.54,-1268.37 67.35,-1263.57"/>
</g>
<!-- 85 -->
<g id="node86" class="node">
<title>85</title>
<ellipse fill="black" stroke="black" cx="45.8" cy="-1222.2" rx="1.8" ry="1.8"/>
</g>
<!-- 41&#45;&#45;85 -->
<g id="edge85" class="edge">
<title>41&#45;&#45;85</title>
<path fill="none" stroke="black" d="M45.8,-1259.55C45.8,-1253.84 45.8,-1230.29 45.8,-1224.49"/>
</g>
<!-- 43 -->
<g id="node44" class="node">
<title>43</title>
<ellipse fill="black" stroke="black" cx="67.8" cy="-1222.2" rx="1.8" ry="1.8"/>
</g>
<!-- 42&#45;&#45;43 -->
<g id="edge43" class="edge">
<title>42&#45;&#45;43</title>
<path fill="none" stroke="black" d="M67.8,-1259.55C67.8,-1253.84 67.8,-1230.29 67.8,-1224.49"/>
</g>
<!-- 44 -->
<g id="node45" class="node">
<title>44</title>
<ellipse fill="black" stroke="black" cx="67.8" cy="-1182.6" rx="1.8" ry="1.8"/>
</g>
<!-- 43&#45;&#45;44 -->
<g id="edge44" class="edge">
<title>43&#45;&#45;44</title>
<path fill="none" stroke="black" d="M67.8,-1219.95C67.8,-1214.24 67.8,-1190.69 67.8,-1184.89"/>
</g>
<!-- 45 -->
<g id="node46" class="node">
<title>45</title>
<ellipse fill="black" stroke="black" cx="67.8" cy="-1143" rx="1.8" ry="1.8"/>
</g>
<!-- 44&#45;&#45;45 -->
<g id="edge45" class="edge">
<title>44&#45;&#45;45</title>
<path fill="none" stroke="black" d="M67.8,-1180.35C67.8,-1174.64 67.8,-1151.09 67.8,-1145.29"/>
</g>
<!-- 46 -->
<g id="node47" class="node">
<title>46</title>
<ellipse fill="black" stroke="black" cx="67.8" cy="-1103.4" rx="1.8" ry="1.8"/>
</g>
<!-- 45&#45;&#45;46 -->
<g id="edge46" class="edge">
<title>45&#45;&#45;46</title>
<path fill="none" stroke="black" d="M67.8,-1140.75C67.8,-1135.04 67.8,-1111.49 67.8,-1105.69"/>
</g>
<!-- 47 -->
<g id="node48" class="node">
<title>47</title>
<ellipse fill="black" stroke="black" cx="67.8" cy="-1063.8" rx="1.8" ry="1.8"/>
</g>
<!-- 46&#45;&#45;47 -->
<g id="edge47" class="edge">
<title>46&#45;&#45;47</title>
<path fill="none" stroke="black" d="M67.8,-1101.15C67.8,-1095.44 67.8,-1071.89 67.8,-1066.09"/>
</g>
<!-- 48 -->
<g id="node49" class="node">
<title>48</title>
<ellipse fill="black" stroke="black" cx="67.8" cy="-1024.2" rx="1.8" ry="1.8"/>
</g>
<!-- 47&#45;&#45;48 -->
<g id="edge48" class="edge">
<title>47&#45;&#45;48</title>
<path fill="none" stroke="black" d="M67.8,-1061.55C67.8,-1055.84 67.8,-1032.29 67.8,-1026.49"/>
</g>
<!-- 49 -->
<g id="node50" class="node">
<title>49</title>
<ellipse fill="black" stroke="black" cx="67.8" cy="-984.6" rx="1.8" ry="1.8"/>
</g>
<!-- 48&#45;&#45;49 -->
<g id="edge49" class="edge">
<title>48&#45;&#45;49</title>
<path fill="none" stroke="black" d="M67.8,-1021.95C67.8,-1016.24 67.8,-992.69 67.8,-986.89"/>
</g>
<!-- 50 -->
<g id="node51" class="node">
<title>50</title>
<ellipse fill="black" stroke="black" cx="89.8" cy="-984.6" rx="1.8" ry="1.8"/>
</g>
<!-- 48&#45;&#45;50 -->
<g id="edge50" class="edge">
<title>48&#45;&#45;50</title>
<path fill="none" stroke="black" d="M68.34,-1022.27C71.41,-1017.02 86.54,-991.17 89.35,-986.37"/>
</g>
<!-- 51 -->
<g id="node52" class="node">
<title>51</title>
<ellipse fill="black" stroke="black" cx="67.8" cy="-945" rx="1.8" ry="1.8"/>
</g>
<!-- 49&#45;&#45;51 -->
<g id="edge51" class="edge">
<title>49&#45;&#45;51</title>
<path fill="none" stroke="black" d="M67.8,-982.35C67.8,-976.64 67.8,-953.09 67.8,-947.29"/>
</g>
<!-- 52 -->
<g id="node53" class="node">
<title>52</title>
<ellipse fill="black" stroke="black" cx="89.8" cy="-945" rx="1.8" ry="1.8"/>
</g>
<!-- 49&#45;&#45;52 -->
<g id="edge52" class="edge">
<title>49&#45;&#45;52</title>
<path fill="none" stroke="black" d="M68.34,-982.67C71.41,-977.42 86.54,-951.57 89.35,-946.77"/>
</g>
<!-- 81 -->
<g id="node82" class="node">
<title>81</title>
<ellipse fill="black" stroke="black" cx="67.8" cy="-905.4" rx="1.8" ry="1.8"/>
</g>
<!-- 51&#45;&#45;81 -->
<g id="edge81" class="edge">
<title>51&#45;&#45;81</title>
<path fill="none" stroke="black" d="M67.8,-942.75C67.8,-937.04 67.8,-913.49 67.8,-907.69"/>
</g>
<!-- 53 -->
<g id="node54" class="node">
<title>53</title>
<ellipse fill="black" stroke="black" cx="89.8" cy="-905.4" rx="1.8" ry="1.8"/>
</g>
<!-- 52&#45;&#45;53 -->
<g id="edge53" class="edge">
<title>52&#45;&#45;53</title>
<path fill="none" stroke="black" d="M89.8,-942.75C89.8,-937.04 89.8,-913.49 89.8,-907.69"/>
</g>
<!-- 54 -->
<g id="node55" class="node">
<title>54</title>
<ellipse fill="black" stroke="black" cx="89.8" cy="-865.8" rx="1.8" ry="1.8"/>
</g>
<!-- 53&#45;&#45;54 -->
<g id="edge54" class="edge">
<title>53&#45;&#45;54</title>
<path fill="none" stroke="black" d="M89.8,-903.15C89.8,-897.44 89.8,-873.89 89.8,-868.09"/>
</g>
<!-- 55 -->
<g id="node56" class="node">
<title>55</title>
<ellipse fill="black" stroke="black" cx="89.8" cy="-826.2" rx="1.8" ry="1.8"/>
</g>
<!-- 54&#45;&#45;55 -->
<g id="edge55" class="edge">
<title>54&#45;&#45;55</title>
<path fill="none" stroke="black" d="M89.8,-863.55C89.8,-857.84 89.8,-834.29 89.8,-828.49"/>
</g>
<!-- 56 -->
<g id="node57" class="node">
<title>56</title>
<ellipse fill="black" stroke="black" cx="89.8" cy="-786.6" rx="1.8" ry="1.8"/>
</g>
<!-- 55&#45;&#45;56 -->
<g id="edge56" class="edge">
<title>55&#45;&#45;56</title>
<path fill="none" stroke="black" d="M89.8,-823.95C89.8,-818.24 89.8,-794.69 89.8,-788.89"/>
</g>
<!-- 57 -->
<g id="node58" class="node">
<title>57</title>
<ellipse fill="black" stroke="black" cx="89.8" cy="-747" rx="1.8" ry="1.8"/>
</g>
<!-- 56&#45;&#45;57 -->
<g id="edge57" class="edge">
<title>56&#45;&#45;57</title>
<path fill="none" stroke="black" d="M89.8,-784.35C89.8,-778.64 89.8,-755.09 89.8,-749.29"/>
</g>
<!-- 58 -->
<g id="node59" class="node">
<title>58</title>
<ellipse fill="black" stroke="black" cx="89.8" cy="-707.4" rx="1.8" ry="1.8"/>
</g>
<!-- 57&#45;&#45;58 -->
<g id="edge58" class="edge">
<title>57&#45;&#45;58</title>
<path fill="none" stroke="black" d="M89.8,-744.75C89.8,-739.04 89.8,-715.49 89.8,-709.69"/>
</g>
<!-- 59 -->
<g id="node60" class="node">
<title>59</title>
<ellipse fill="black" stroke="black" cx="89.8" cy="-667.8" rx="1.8" ry="1.8"/>
</g>
<!-- 58&#45;&#45;59 -->
<g id="edge59" class="edge">
<title>58&#45;&#45;59</title>
<path fill="none" stroke="black" d="M89.8,-705.15C89.8,-699.44 89.8,-675.89 89.8,-670.09"/>
</g>
<!-- 60 -->
<g id="node61" class="node">
<title>60</title>
<ellipse fill="black" stroke="black" cx="111.8" cy="-667.8" rx="1.8" ry="1.8"/>
</g>
<!-- 58&#45;&#45;60 -->
<g id="edge60" class="edge">
<title>58&#45;&#45;60</title>
<path fill="none" stroke="black" d="M90.34,-705.47C93.41,-700.22 108.54,-674.37 111.35,-669.57"/>
</g>
<!-- 61 -->
<g id="node62" class="node">
<title>61</title>
<ellipse fill="black" stroke="black" cx="89.8" cy="-628.2" rx="1.8" ry="1.8"/>
</g>
<!-- 59&#45;&#45;61 -->
<g id="edge61" class="edge">
<title>59&#45;&#45;61</title>
<path fill="none" stroke="black" d="M89.8,-665.55C89.8,-659.84 89.8,-636.29 89.8,-630.49"/>
</g>
<!-- 62 -->
<g id="node63" class="node">
<title>62</title>
<ellipse fill="black" stroke="black" cx="111.8" cy="-628.2" rx="1.8" ry="1.8"/>
</g>
<!-- 59&#45;&#45;62 -->
<g id="edge62" class="edge">
<title>59&#45;&#45;62</title>
<path fill="none" stroke="black" d="M90.34,-665.87C93.41,-660.62 108.54,-634.77 111.35,-629.97"/>
</g>
<!-- 71 -->
<g id="node72" class="node">
<title>71</title>
<ellipse fill="black" stroke="black" cx="89.8" cy="-588.6" rx="1.8" ry="1.8"/>
</g>
<!-- 61&#45;&#45;71 -->
<g id="edge71" class="edge">
<title>61&#45;&#45;71</title>
<path fill="none" stroke="black" d="M89.8,-625.95C89.8,-620.24 89.8,-596.69 89.8,-590.89"/>
</g>
<!-- 63 -->
<g id="node64" class="node">
<title>63</title>
<ellipse fill="black" stroke="black" cx="111.8" cy="-588.6" rx="1.8" ry="1.8"/>
</g>
<!-- 62&#45;&#45;63 -->
<g id="edge63" class="edge">
<title>62&#45;&#45;63</title>
<path fill="none" stroke="black" d="M111.8,-625.95C111.8,-620.24 111.8,-596.69 111.8,-590.89"/>
</g>
<!-- 64 -->
<g id="node65" class="node">
<title>64</title>
<ellipse fill="black" stroke="black" cx="111.8" cy="-549" rx="1.8" ry="1.8"/>
</g>
<!-- 63&#45;&#45;64 -->
<g id="edge64" class="edge">
<title>63&#45;&#45;64</title>
<path fill="none" stroke="black" d="M111.8,-586.35C111.8,-580.64 111.8,-557.09 111.8,-551.29"/>
</g>
<!-- 65 -->
<g id="node66" class="node">
<title>65</title>
<ellipse fill="black" stroke="black" cx="111.8" cy="-509.4" rx="1.8" ry="1.8"/>
</g>
<!-- 64&#45;&#45;65 -->
<g id="edge65" class="edge">
<title>64&#45;&#45;65</title>
<path fill="none" stroke="black" d="M111.8,-546.75C111.8,-541.04 111.8,-517.49 111.8,-511.69"/>
</g>
<!-- 66 -->
<g id="node67" class="node">
<title>66</title>
<ellipse fill="black" stroke="black" cx="111.8" cy="-469.8" rx="1.8" ry="1.8"/>
</g>
<!-- 65&#45;&#45;66 -->
<g id="edge66" class="edge">
<title>65&#45;&#45;66</title>
<path fill="none" stroke="black" d="M111.8,-507.15C111.8,-501.44 111.8,-477.89 111.8,-472.09"/>
</g>
<!-- 67 -->
<g id="node68" class="node">
<title>67</title>
<ellipse fill="black" stroke="black" cx="111.8" cy="-430.2" rx="1.8" ry="1.8"/>
</g>
<!-- 66&#45;&#45;67 -->
<g id="edge67" class="edge">
<title>66&#45;&#45;67</title>
<path fill="none" stroke="black" d="M111.8,-467.55C111.8,-461.84 111.8,-438.29 111.8,-432.49"/>
</g>
<!-- 68 -->
<g id="node69" class="node">
<title>68</title>
<ellipse fill="black" stroke="black" cx="111.8" cy="-390.6" rx="1.8" ry="1.8"/>
</g>
<!-- 67&#45;&#45;68 -->
<g id="edge68" class="edge">
<title>67&#45;&#45;68</title>
<path fill="none" stroke="black" d="M111.8,-427.95C111.8,-422.24 111.8,-398.69 111.8,-392.89"/>
</g>
<!-- 69 -->
<g id="node70" class="node">
<title>69</title>
<ellipse fill="black" stroke="black" cx="111.8" cy="-351" rx="1.8" ry="1.8"/>
</g>
<!-- 68&#45;&#45;69 -->
<g id="edge69" class="edge">
<title>68&#45;&#45;69</title>
<path fill="none" stroke="black" d="M111.8,-388.35C111.8,-382.64 111.8,-359.09 111.8,-353.29"/>
</g>
<!-- 70 -->
<g id="node71" class="node">
<title>70</title>
<ellipse fill="black" stroke="black" cx="133.8" cy="-351" rx="1.8" ry="1.8"/>
</g>
<!-- 68&#45;&#45;70 -->
<g id="edge70" class="edge">
<title>68&#45;&#45;70</title>
<path fill="none" stroke="black" d="M112.34,-388.67C115.41,-383.42 130.54,-357.57 133.35,-352.77"/>
</g>
<!-- 79 -->
<g id="node80" class="node">
<title>79</title>
<ellipse fill="black" stroke="black" cx="111.8" cy="-311.4" rx="1.8" ry="1.8"/>
</g>
<!-- 69&#45;&#45;79 -->
<g id="edge79" class="edge">
<title>69&#45;&#45;79</title>
<path fill="none" stroke="black" d="M111.8,-348.75C111.8,-343.04 111.8,-319.49 111.8,-313.69"/>
</g>
<!-- 80 -->
<g id="node81" class="node">
<title>80</title>
<ellipse fill="black" stroke="black" cx="133.8" cy="-311.4" rx="1.8" ry="1.8"/>
</g>
<!-- 69&#45;&#45;80 -->
<g id="edge80" class="edge">
<title>69&#45;&#45;80</title>
<path fill="none" stroke="black" d="M112.34,-349.07C115.41,-343.82 130.54,-317.97 133.35,-313.17"/>
</g>
<!-- 72 -->
<g id="node73" class="node">
<title>72</title>
<ellipse fill="black" stroke="black" cx="89.8" cy="-549" rx="1.8" ry="1.8"/>
</g>
<!-- 71&#45;&#45;72 -->
<g id="edge72" class="edge">
<title>71&#45;&#45;72</title>
<path fill="none" stroke="black" d="M89.8,-586.35C89.8,-580.64 89.8,-557.09 89.8,-551.29"/>
</g>
<!-- 73 -->
<g id="node74" class="node">
<title>73</title>
<ellipse fill="black" stroke="black" cx="67.8" cy="-509.4" rx="1.8" ry="1.8"/>
</g>
<!-- 72&#45;&#45;73 -->
<g id="edge73" class="edge">
<title>72&#45;&#45;73</title>
<path fill="none" stroke="black" d="M89.26,-547.07C86.19,-541.82 71.06,-515.97 68.25,-511.17"/>
</g>
<!-- 74 -->
<g id="node75" class="node">
<title>74</title>
<ellipse fill="black" stroke="black" cx="89.8" cy="-509.4" rx="1.8" ry="1.8"/>
</g>
<!-- 72&#45;&#45;74 -->
<g id="edge74" class="edge">
<title>72&#45;&#45;74</title>
<path fill="none" stroke="black" d="M89.8,-546.75C89.8,-541.04 89.8,-517.49 89.8,-511.69"/>
</g>
<!-- 115 -->
<g id="node116" class="node">
<title>115</title>
<ellipse fill="black" stroke="black" cx="89.8" cy="-469.8" rx="1.8" ry="1.8"/>
</g>
<!-- 74&#45;&#45;115 -->
<g id="edge115" class="edge">
<title>74&#45;&#45;115</title>
<path fill="none" stroke="black" d="M89.8,-507.15C89.8,-501.44 89.8,-477.89 89.8,-472.09"/>
</g>
<!-- 76 -->
<g id="node77" class="node">
<title>76</title>
<ellipse fill="black" stroke="black" cx="23.8" cy="-1816.2" rx="1.8" ry="1.8"/>
</g>
<!-- 75&#45;&#45;76 -->
<g id="edge76" class="edge">
<title>75&#45;&#45;76</title>
<path fill="none" stroke="black" d="M23.8,-1853.55C23.8,-1847.84 23.8,-1824.29 23.8,-1818.49"/>
</g>
<!-- 77 -->
<g id="node78" class="node">
<title>77</title>
<ellipse fill="black" stroke="black" cx="1.8" cy="-1776.6" rx="1.8" ry="1.8"/>
</g>
<!-- 76&#45;&#45;77 -->
<g id="edge77" class="edge">
<title>76&#45;&#45;77</title>
<path fill="none" stroke="black" d="M23.26,-1814.27C20.19,-1809.02 5.06,-1783.17 2.25,-1778.37"/>
</g>
<!-- 78 -->
<g id="node79" class="node">
<title>78</title>
<ellipse fill="black" stroke="black" cx="23.8" cy="-1776.6" rx="1.8" ry="1.8"/>
</g>
<!-- 76&#45;&#45;78 -->
<g id="edge78" class="edge">
<title>76&#45;&#45;78</title>
<path fill="none" stroke="black" d="M23.8,-1813.95C23.8,-1808.24 23.8,-1784.69 23.8,-1778.89"/>
</g>
<!-- 122 -->
<g id="node123" class="node">
<title>122</title>
<ellipse fill="black" stroke="black" cx="111.8" cy="-271.8" rx="1.8" ry="1.8"/>
</g>
<!-- 79&#45;&#45;122 -->
<g id="edge122" class="edge">
<title>79&#45;&#45;122</title>
<path fill="none" stroke="black" d="M111.8,-309.15C111.8,-303.44 111.8,-279.89 111.8,-274.09"/>
</g>
<!-- 93 -->
<g id="node94" class="node">
<title>93</title>
<ellipse fill="black" stroke="black" cx="133.8" cy="-271.8" rx="1.8" ry="1.8"/>
</g>
<!-- 80&#45;&#45;93 -->
<g id="edge93" class="edge">
<title>80&#45;&#45;93</title>
<path fill="none" stroke="black" d="M133.8,-309.15C133.8,-303.44 133.8,-279.89 133.8,-274.09"/>
</g>
<!-- 82 -->
<g id="node83" class="node">
<title>82</title>
<ellipse fill="black" stroke="black" cx="67.8" cy="-865.8" rx="1.8" ry="1.8"/>
</g>
<!-- 81&#45;&#45;82 -->
<g id="edge82" class="edge">
<title>81&#45;&#45;82</title>
<path fill="none" stroke="black" d="M67.8,-903.15C67.8,-897.44 67.8,-873.89 67.8,-868.09"/>
</g>
<!-- 83 -->
<g id="node84" class="node">
<title>83</title>
<ellipse fill="black" stroke="black" cx="45.8" cy="-826.2" rx="1.8" ry="1.8"/>
</g>
<!-- 82&#45;&#45;83 -->
<g id="edge83" class="edge">
<title>82&#45;&#45;83</title>
<path fill="none" stroke="black" d="M67.26,-863.87C64.19,-858.62 49.06,-832.77 46.25,-827.97"/>
</g>
<!-- 84 -->
<g id="node85" class="node">
<title>84</title>
<ellipse fill="black" stroke="black" cx="67.8" cy="-826.2" rx="1.8" ry="1.8"/>
</g>
<!-- 82&#45;&#45;84 -->
<g id="edge84" class="edge">
<title>82&#45;&#45;84</title>
<path fill="none" stroke="black" d="M67.8,-863.55C67.8,-857.84 67.8,-834.29 67.8,-828.49"/>
</g>
<!-- 126 -->
<g id="node127" class="node">
<title>126</title>
<ellipse fill="black" stroke="black" cx="67.8" cy="-786.6" rx="1.8" ry="1.8"/>
</g>
<!-- 84&#45;&#45;126 -->
<g id="edge126" class="edge">
<title>84&#45;&#45;126</title>
<path fill="none" stroke="black" d="M67.8,-823.95C67.8,-818.24 67.8,-794.69 67.8,-788.89"/>
</g>
<!-- 86 -->
<g id="node87" class="node">
<title>86</title>
<ellipse fill="black" stroke="black" cx="45.8" cy="-1182.6" rx="1.8" ry="1.8"/>
</g>
<!-- 85&#45;&#45;86 -->
<g id="edge86" class="edge">
<title>85&#45;&#45;86</title>
<path fill="none" stroke="black" d="M45.8,-1219.95C45.8,-1214.24 45.8,-1190.69 45.8,-1184.89"/>
</g>
<!-- 87 -->
<g id="node88" class="node">
<title>87</title>
<ellipse fill="black" stroke="black" cx="23.8" cy="-1143" rx="1.8" ry="1.8"/>
</g>
<!-- 86&#45;&#45;87 -->
<g id="edge87" class="edge">
<title>86&#45;&#45;87</title>
<path fill="none" stroke="black" d="M45.26,-1180.67C42.19,-1175.42 27.06,-1149.57 24.25,-1144.77"/>
</g>
<!-- 88 -->
<g id="node89" class="node">
<title>88</title>
<ellipse fill="black" stroke="black" cx="45.8" cy="-1143" rx="1.8" ry="1.8"/>
</g>
<!-- 86&#45;&#45;88 -->
<g id="edge88" class="edge">
<title>86&#45;&#45;88</title>
<path fill="none" stroke="black" d="M45.8,-1180.35C45.8,-1174.64 45.8,-1151.09 45.8,-1145.29"/>
</g>
<!-- 108 -->
<g id="node109" class="node">
<title>108</title>
<ellipse fill="black" stroke="black" cx="45.8" cy="-1103.4" rx="1.8" ry="1.8"/>
</g>
<!-- 88&#45;&#45;108 -->
<g id="edge108" class="edge">
<title>88&#45;&#45;108</title>
<path fill="none" stroke="black" d="M45.8,-1140.75C45.8,-1135.04 45.8,-1111.49 45.8,-1105.69"/>
</g>
<!-- 90 -->
<g id="node91" class="node">
<title>90</title>
<ellipse fill="black" stroke="black" cx="23.8" cy="-1499.4" rx="1.8" ry="1.8"/>
</g>
<!-- 89&#45;&#45;90 -->
<g id="edge90" class="edge">
<title>89&#45;&#45;90</title>
<path fill="none" stroke="black" d="M23.8,-1536.75C23.8,-1531.04 23.8,-1507.49 23.8,-1501.69"/>
</g>
<!-- 91 -->
<g id="node92" class="node">
<title>91</title>
<ellipse fill="black" stroke="black" cx="1.8" cy="-1459.8" rx="1.8" ry="1.8"/>
</g>
<!-- 90&#45;&#45;91 -->
<g id="edge91" class="edge">
<title>90&#45;&#45;91</title>
<path fill="none" stroke="black" d="M23.26,-1497.47C20.19,-1492.22 5.06,-1466.37 2.25,-1461.57"/>
</g>
<!-- 92 -->
<g id="node93" class="node">
<title>92</title>
<ellipse fill="black" stroke="black" cx="23.8" cy="-1459.8" rx="1.8" ry="1.8"/>
</g>
<!-- 90&#45;&#45;92 -->
<g id="edge92" class="edge">
<title>90&#45;&#45;92</title>
<path fill="none" stroke="black" d="M23.8,-1497.15C23.8,-1491.44 23.8,-1467.89 23.8,-1462.09"/>
</g>
<!-- 101 -->
<g id="node102" class="node">
<title>101</title>
<ellipse fill="black" stroke="black" cx="23.8" cy="-1420.2" rx="1.8" ry="1.8"/>
</g>
<!-- 92&#45;&#45;101 -->
<g id="edge101" class="edge">
<title>92&#45;&#45;101</title>
<path fill="none" stroke="black" d="M23.8,-1457.55C23.8,-1451.84 23.8,-1428.29 23.8,-1422.49"/>
</g>
<!-- 94 -->
<g id="node95" class="node">
<title>94</title>
<ellipse fill="black" stroke="black" cx="133.8" cy="-232.2" rx="1.8" ry="1.8"/>
</g>
<!-- 93&#45;&#45;94 -->
<g id="edge94" class="edge">
<title>93&#45;&#45;94</title>
<path fill="none" stroke="black" d="M133.8,-269.55C133.8,-263.84 133.8,-240.29 133.8,-234.49"/>
</g>
<!-- 95 -->
<g id="node96" class="node">
<title>95</title>
<ellipse fill="black" stroke="black" cx="133.8" cy="-176.4" rx="1.8" ry="1.8"/>
</g>
<!-- 94&#45;&#45;95 -->
<g id="edge95" class="edge">
<title>94&#45;&#45;95</title>
<path fill="none" stroke="black" d="M133.8,-230.27C133.8,-223.79 133.8,-185.63 133.8,-178.54"/>
</g>
<!-- 96 -->
<g id="node97" class="node">
<title>96</title>
<ellipse fill="black" stroke="black" cx="133.8" cy="-120.6" rx="1.8" ry="1.8"/>
</g>
<!-- 95&#45;&#45;96 -->
<g id="edge96" class="edge">
<title>95&#45;&#45;96</title>
<path fill="none" stroke="black" d="M133.8,-174.47C133.8,-167.99 133.8,-129.83 133.8,-122.74"/>
</g>
<!-- 97 -->
<g id="node98" class="node">
<title>97</title>
<ellipse fill="black" stroke="black" cx="133.8" cy="-81" rx="1.8" ry="1.8"/>
</g>
<!-- 96&#45;&#45;97 -->
<g id="edge97" class="edge">
<title>96&#45;&#45;97</title>
<path fill="none" stroke="black" d="M133.8,-118.35C133.8,-112.64 133.8,-89.09 133.8,-83.29"/>
</g>
<!-- 98 -->
<g id="node99" class="node">
<title>98</title>
<ellipse fill="black" stroke="black" cx="133.8" cy="-41.4" rx="1.8" ry="1.8"/>
</g>
<!-- 97&#45;&#45;98 -->
<g id="edge98" class="edge">
<title>97&#45;&#45;98</title>
<path fill="none" stroke="black" d="M133.8,-78.75C133.8,-73.04 133.8,-49.49 133.8,-43.69"/>
</g>
<!-- 99 -->
<g id="node100" class="node">
<title>99</title>
<ellipse fill="black" stroke="black" cx="122.8" cy="-1.8" rx="1.8" ry="1.8"/>
</g>
<!-- 98&#45;&#45;99 -->
<g id="edge99" class="edge">
<title>98&#45;&#45;99</title>
<path fill="none" stroke="black" d="M133.43,-39.15C131.7,-33.24 124.38,-8.19 123.02,-3.54"/>
</g>
<!-- 100 -->
<g id="node101" class="node">
<title>100</title>
<ellipse fill="black" stroke="black" cx="144.8" cy="-1.8" rx="1.8" ry="1.8"/>
</g>
<!-- 98&#45;&#45;100 -->
<g id="edge100" class="edge">
<title>98&#45;&#45;100</title>
<path fill="none" stroke="black" d="M134.17,-39.15C135.9,-33.24 143.22,-8.19 144.58,-3.54"/>
</g>
<!-- 102 -->
<g id="node103" class="node">
<title>102</title>
<ellipse fill="black" stroke="black" cx="23.8" cy="-1380.6" rx="1.8" ry="1.8"/>
</g>
<!-- 101&#45;&#45;102 -->
<g id="edge102" class="edge">
<title>101&#45;&#45;102</title>
<path fill="none" stroke="black" d="M23.8,-1417.95C23.8,-1412.24 23.8,-1388.69 23.8,-1382.89"/>
</g>
<!-- 103 -->
<g id="node104" class="node">
<title>103</title>
<ellipse fill="black" stroke="black" cx="23.8" cy="-1341" rx="1.8" ry="1.8"/>
</g>
<!-- 102&#45;&#45;103 -->
<g id="edge103" class="edge">
<title>102&#45;&#45;103</title>
<path fill="none" stroke="black" d="M23.8,-1378.35C23.8,-1372.64 23.8,-1349.09 23.8,-1343.29"/>
</g>
<!-- 104 -->
<g id="node105" class="node">
<title>104</title>
<ellipse fill="black" stroke="black" cx="23.8" cy="-1301.4" rx="1.8" ry="1.8"/>
</g>
<!-- 103&#45;&#45;104 -->
<g id="edge104" class="edge">
<title>103&#45;&#45;104</title>
<path fill="none" stroke="black" d="M23.8,-1338.75C23.8,-1333.04 23.8,-1309.49 23.8,-1303.69"/>
</g>
<!-- 105 -->
<g id="node106" class="node">
<title>105</title>
<ellipse fill="black" stroke="black" cx="23.8" cy="-1261.8" rx="1.8" ry="1.8"/>
</g>
<!-- 104&#45;&#45;105 -->
<g id="edge105" class="edge">
<title>104&#45;&#45;105</title>
<path fill="none" stroke="black" d="M23.8,-1299.15C23.8,-1293.44 23.8,-1269.89 23.8,-1264.09"/>
</g>
<!-- 106 -->
<g id="node107" class="node">
<title>106</title>
<ellipse fill="black" stroke="black" cx="1.8" cy="-1222.2" rx="1.8" ry="1.8"/>
</g>
<!-- 105&#45;&#45;106 -->
<g id="edge106" class="edge">
<title>105&#45;&#45;106</title>
<path fill="none" stroke="black" d="M23.26,-1259.87C20.19,-1254.62 5.06,-1228.77 2.25,-1223.97"/>
</g>
<!-- 107 -->
<g id="node108" class="node">
<title>107</title>
<ellipse fill="black" stroke="black" cx="23.8" cy="-1222.2" rx="1.8" ry="1.8"/>
</g>
<!-- 105&#45;&#45;107 -->
<g id="edge107" class="edge">
<title>105&#45;&#45;107</title>
<path fill="none" stroke="black" d="M23.8,-1259.55C23.8,-1253.84 23.8,-1230.29 23.8,-1224.49"/>
</g>
<!-- 109 -->
<g id="node110" class="node">
<title>109</title>
<ellipse fill="black" stroke="black" cx="45.8" cy="-1063.8" rx="1.8" ry="1.8"/>
</g>
<!-- 108&#45;&#45;109 -->
<g id="edge109" class="edge">
<title>108&#45;&#45;109</title>
<path fill="none" stroke="black" d="M45.8,-1101.15C45.8,-1095.44 45.8,-1071.89 45.8,-1066.09"/>
</g>
<!-- 110 -->
<g id="node111" class="node">
<title>110</title>
<ellipse fill="black" stroke="black" cx="45.8" cy="-1024.2" rx="1.8" ry="1.8"/>
</g>
<!-- 109&#45;&#45;110 -->
<g id="edge110" class="edge">
<title>109&#45;&#45;110</title>
<path fill="none" stroke="black" d="M45.8,-1061.55C45.8,-1055.84 45.8,-1032.29 45.8,-1026.49"/>
</g>
<!-- 111 -->
<g id="node112" class="node">
<title>111</title>
<ellipse fill="black" stroke="black" cx="45.8" cy="-984.6" rx="1.8" ry="1.8"/>
</g>
<!-- 110&#45;&#45;111 -->
<g id="edge111" class="edge">
<title>110&#45;&#45;111</title>
<path fill="none" stroke="black" d="M45.8,-1021.95C45.8,-1016.24 45.8,-992.69 45.8,-986.89"/>
</g>
<!-- 112 -->
<g id="node113" class="node">
<title>112</title>
<ellipse fill="black" stroke="black" cx="45.8" cy="-945" rx="1.8" ry="1.8"/>
</g>
<!-- 111&#45;&#45;112 -->
<g id="edge112" class="edge">
<title>111&#45;&#45;112</title>
<path fill="none" stroke="black" d="M45.8,-982.35C45.8,-976.64 45.8,-953.09 45.8,-947.29"/>
</g>
<!-- 113 -->
<g id="node114" class="node">
<title>113</title>
<ellipse fill="black" stroke="black" cx="23.8" cy="-905.4" rx="1.8" ry="1.8"/>
</g>
<!-- 112&#45;&#45;113 -->
<g id="edge113" class="edge">
<title>112&#45;&#45;113</title>
<path fill="none" stroke="black" d="M45.26,-943.07C42.19,-937.82 27.06,-911.97 24.25,-907.17"/>
</g>
<!-- 114 -->
<g id="node115" class="node">
<title>114</title>
<ellipse fill="black" stroke="black" cx="45.8" cy="-905.4" rx="1.8" ry="1.8"/>
</g>
<!-- 112&#45;&#45;114 -->
<g id="edge114" class="edge">
<title>112&#45;&#45;114</title>
<path fill="none" stroke="black" d="M45.8,-942.75C45.8,-937.04 45.8,-913.49 45.8,-907.69"/>
</g>
<!-- 116 -->
<g id="node117" class="node">
<title>116</title>
<ellipse fill="black" stroke="black" cx="89.8" cy="-430.2" rx="1.8" ry="1.8"/>
</g>
<!-- 115&#45;&#45;116 -->
<g id="edge116" class="edge">
<title>115&#45;&#45;116</title>
<path fill="none" stroke="black" d="M89.8,-467.55C89.8,-461.84 89.8,-438.29 89.8,-432.49"/>
</g>
<!-- 117 -->
<g id="node118" class="node">
<title>117</title>
<ellipse fill="black" stroke="black" cx="89.8" cy="-390.6" rx="1.8" ry="1.8"/>
</g>
<!-- 116&#45;&#45;117 -->
<g id="edge117" class="edge">
<title>116&#45;&#45;117</title>
<path fill="none" stroke="black" d="M89.8,-427.95C89.8,-422.24 89.8,-398.69 89.8,-392.89"/>
</g>
<!-- 118 -->
<g id="node119" class="node">
<title>118</title>
<ellipse fill="black" stroke="black" cx="89.8" cy="-351" rx="1.8" ry="1.8"/>
</g>
<!-- 117&#45;&#45;118 -->
<g id="edge118" class="edge">
<title>117&#45;&#45;118</title>
<path fill="none" stroke="black" d="M89.8,-388.35C89.8,-382.64 89.8,-359.09 89.8,-353.29"/>
</g>
<!-- 119 -->
<g id="node120" class="node">
<title>119</title>
<ellipse fill="black" stroke="black" cx="89.8" cy="-311.4" rx="1.8" ry="1.8"/>
</g>
<!-- 118&#45;&#45;119 -->
<g id="edge119" class="edge">
<title>118&#45;&#45;119</title>
<path fill="none" stroke="black" d="M89.8,-348.75C89.8,-343.04 89.8,-319.49 89.8,-313.69"/>
</g>
<!-- 120 -->
<g id="node121" class="node">
<title>120</title>
<ellipse fill="black" stroke="black" cx="67.8" cy="-271.8" rx="1.8" ry="1.8"/>
</g>
<!-- 119&#45;&#45;120 -->
<g id="edge120" class="edge">
<title>119&#45;&#45;120</title>
<path fill="none" stroke="black" d="M89.26,-309.47C86.19,-304.22 71.06,-278.37 68.25,-273.57"/>
</g>
<!-- 121 -->
<g id="node122" class="node">
<title>121</title>
<ellipse fill="black" stroke="black" cx="89.8" cy="-271.8" rx="1.8" ry="1.8"/>
</g>
<!-- 119&#45;&#45;121 -->
<g id="edge121" class="edge">
<title>119&#45;&#45;121</title>
<path fill="none" stroke="black" d="M89.8,-309.15C89.8,-303.44 89.8,-279.89 89.8,-274.09"/>
</g>
<!-- 123 -->
<g id="node124" class="node">
<title>123</title>
<ellipse fill="black" stroke="black" cx="111.8" cy="-232.2" rx="1.8" ry="1.8"/>
</g>
<!-- 122&#45;&#45;123 -->
<g id="edge123" class="edge">
<title>122&#45;&#45;123</title>
<path fill="none" stroke="black" d="M111.8,-269.55C111.8,-263.84 111.8,-240.29 111.8,-234.49"/>
</g>
<!-- 124 -->
<g id="node125" class="node">
<title>124</title>
<ellipse fill="red" stroke="black" cx="73.8" cy="-176.4" rx="18" ry="18"/>
</g>
<!-- 123&#45;&#45;124 -->
<g id="edge124" class="edge">
<title>123&#45;&#45;124</title>
<path fill="none" stroke="black" d="M111.14,-230.27C107.95,-225.75 93.84,-205.78 83.91,-191.72"/>
</g>
<!-- 125 -->
<g id="node126" class="node">
<title>125</title>
<ellipse fill="black" stroke="black" cx="111.8" cy="-176.4" rx="1.8" ry="1.8"/>
</g>
<!-- 123&#45;&#45;125 -->
<g id="edge125" class="edge">
<title>123&#45;&#45;125</title>
<path fill="none" stroke="black" d="M111.8,-230.27C111.8,-223.79 111.8,-185.63 111.8,-178.54"/>
</g>
<!-- 127 -->
<g id="node128" class="node">
<title>127</title>
<ellipse fill="black" stroke="black" cx="67.8" cy="-747" rx="1.8" ry="1.8"/>
</g>
<!-- 126&#45;&#45;127 -->
<g id="edge127" class="edge">
<title>126&#45;&#45;127</title>
<path fill="none" stroke="black" d="M67.8,-784.35C67.8,-778.64 67.8,-755.09 67.8,-749.29"/>
</g>
<!-- 128 -->
<g id="node129" class="node">
<title>128</title>
<ellipse fill="black" stroke="black" cx="67.8" cy="-707.4" rx="1.8" ry="1.8"/>
</g>
<!-- 127&#45;&#45;128 -->
<g id="edge128" class="edge">
<title>127&#45;&#45;128</title>
<path fill="none" stroke="black" d="M67.8,-744.75C67.8,-739.04 67.8,-715.49 67.8,-709.69"/>
</g>
<!-- 129 -->
<g id="node130" class="node">
<title>129</title>
<ellipse fill="black" stroke="black" cx="67.8" cy="-667.8" rx="1.8" ry="1.8"/>
</g>
<!-- 128&#45;&#45;129 -->
<g id="edge129" class="edge">
<title>128&#45;&#45;129</title>
<path fill="none" stroke="black" d="M67.8,-705.15C67.8,-699.44 67.8,-675.89 67.8,-670.09"/>
</g>
<!-- 130 -->
<g id="node131" class="node">
<title>130</title>
<ellipse fill="black" stroke="black" cx="67.8" cy="-628.2" rx="1.8" ry="1.8"/>
</g>
<!-- 129&#45;&#45;130 -->
<g id="edge130" class="edge">
<title>129&#45;&#45;130</title>
<path fill="none" stroke="black" d="M67.8,-665.55C67.8,-659.84 67.8,-636.29 67.8,-630.49"/>
</g>
<!-- 131 -->
<g id="node132" class="node">
<title>131</title>
<ellipse fill="black" stroke="black" cx="45.8" cy="-588.6" rx="1.8" ry="1.8"/>
</g>
<!-- 130&#45;&#45;131 -->
<g id="edge131" class="edge">
<title>130&#45;&#45;131</title>
<path fill="none" stroke="black" d="M67.26,-626.27C64.19,-621.02 49.06,-595.17 46.25,-590.37"/>
</g>
<!-- 132 -->
<g id="node133" class="node">
<title>132</title>
<ellipse fill="black" stroke="black" cx="67.8" cy="-588.6" rx="1.8" ry="1.8"/>
</g>
<!-- 130&#45;&#45;132 -->
<g id="edge132" class="edge">
<title>130&#45;&#45;132</title>
<path fill="none" stroke="black" d="M67.8,-625.95C67.8,-620.24 67.8,-596.69 67.8,-590.89"/>
</g>
</g>
</svg>
